<?xml version="1.0" encoding="utf-8"?>
<!-- Generator: Adobe Illustrator 26.2.1, SVG Export Plug-In . SVG Version: 6.00 Build 0)  -->
<svg version="1.1" xmlns="http://www.w3.org/2000/svg" xmlns:xlink="http://www.w3.org/1999/xlink" x="0px" y="0px"
	 viewBox="0 0 180 180" style="enable-background:new 0 0 180 180;" xml:space="preserve">
<style type="text/css">
	.st0{display:none;}
	.st1{display:inline;}
	.st2{display:inline;fill:none;}
	.st3{display:inline;fill:none;stroke:#000000;stroke-miterlimit:10;}
	.st4{fill:#6D2C52;}
	.st5{fill:none;}
	.st6{fill:#B9B9EA;}
	.st7{fill:#B788B3;}
	.st8{fill:#F9F0FF;}
	.st9{fill:#472C41;}
	.st10{fill:#332C2C;}
	.st11{fill:#5E4949;}
	.st12{fill:#352930;}
</style>
<g id="Layer_2">
</g>
<g id="Layer_1">
	<g id="nah2">
	</g>
	<g id="nope1">
	</g>
	<g id="nah_1" class="st0">
		<ellipse class="st1" cx="-477" cy="92" rx="12.7" ry="14"/>
		<path class="st1" d="M-601,46v-6.9c16.3,0,29.5-10.8,29.5-24.1h10.8C-560.7,32.1-578.8,46-601,46z"/>
		<path class="st1" d="M-656.8-50.6c-6.2,0-12-2.2-16.4-6.5l7.1-7.1c5.8,5.8,16.3,4.6,23.6-2.7l7.1,7.1
			C-641.5-53.7-649.4-50.6-656.8-50.6z"/>
		<path class="st1" d="M-498.6-81.1L-498.6-81.1c-1.4,0.8-3.1,0.3-4-1.1l-3.3-5.7c-0.8-1.4-0.3-3.2,1.1-3.9l0,0
			c1.4-0.8,3.1-0.3,4,1.1l3.3,5.7C-496.7-83.7-497.2-81.9-498.6-81.1z"/>
		<path class="st1" d="M-594.7,194.4L-594.7,194.4c1.2-1,3.1-0.8,4.1,0.5l7.9,10c1,1.2,0.8,3.1-0.5,4.1l0,0c-1.2,1-3.1,0.8-4.1-0.5
			l-7.9-10C-596.2,197.2-596,195.4-594.7,194.4z"/>
		<path class="st1" d="M-496.9-59.6L-496.9-59.6c-1.6,0-2.9-1.3-2.9-2.9v-6.6c0-1.6,1.3-2.9,2.9-2.9l0,0c1.6,0,2.9,1.3,2.9,2.9v6.6
			C-494-60.9-495.3-59.6-496.9-59.6z"/>
		<path class="st1" d="M-406.7,96.3L-406.7,96.3c-23,0-41.7-18.7-41.7-41.7V-6.7c0-23,18.6-41.7,41.7-41.7l0,0
			c23,0,41.7,18.6,41.7,41.7v61.3C-365,77.7-383.6,96.3-406.7,96.3z"/>
		<path class="st1" d="M-592.3-32L-592.3-32c-5.4,0-9.8-4.4-9.8-9.8v-7.7c0-5.4,4.4-9.8,9.8-9.8l0,0c5.4,0,9.8,4.4,9.8,9.8v7.7
			C-582.6-36.4-587-32-592.3-32z"/>
	</g>
	<g id="nope2" class="st0">
		<ellipse class="st1" cx="-477" cy="92" rx="12.7" ry="14"/>
		<path class="st1" d="M-486.3,67.7c-5,0-9.1-3.3-10.5-7.8c-1.1,1.6-1.7,3.6-1.7,5.7c0,5.8,4.7,10.4,10.4,10.4
			c5.8,0,10.4-4.7,10.4-10.4c0-0.6-0.1-1.3-0.2-1.9C-479.9,66.1-482.9,67.7-486.3,67.7z"/>
		<path class="st1" d="M-304,308.7v-10c15.1,0,27.3-15.8,27.3-35.2h10C-266.7,288.4-283.4,308.7-304,308.7z"/>
		<path class="st1" d="M-358.8,199.4c-6.2,0-12-2.1-16.4-6.5l7.1-7.1c5.8,5.8,16.4,4.6,23.6-2.7l7.1,7.1
			C-343.5,196.3-351.4,199.4-358.8,199.4z"/>
		<path class="st1" d="M-498.6-81.1L-498.6-81.1c-1.4,0.8-3.1,0.3-4-1.1l-3.3-5.7c-0.8-1.4-0.3-3.2,1.1-3.9l0,0
			c1.4-0.8,3.1-0.3,4,1.1l3.3,5.7C-496.7-83.7-497.2-81.9-498.6-81.1z"/>
		<path class="st1" d="M-512.5-68.1L-512.5-68.1c1.2-1,3.1-0.8,4.1,0.5l7.9,10c1,1.2,0.8,3.1-0.5,4.1l0,0c-1.2,1-3.1,0.8-4.1-0.5
			l-7.9-10C-514-65.3-513.8-67.2-512.5-68.1z"/>
		<path class="st1" d="M-496.9-59.6L-496.9-59.6c-1.6,0-2.9-1.3-2.9-2.9v-6.6c0-1.6,1.3-2.9,2.9-2.9l0,0c1.6,0,2.9,1.3,2.9,2.9v6.6
			C-494-60.9-495.3-59.6-496.9-59.6z"/>
		<path class="st1" d="M-406.7,96.3L-406.7,96.3c-23,0-41.7-18.7-41.7-41.7V-6.7c0-23,18.6-41.7,41.7-41.7l0,0
			c23,0,41.7,18.6,41.7,41.7v61.3C-365,77.7-383.6,96.3-406.7,96.3z"/>
		<path class="st1" d="M-300.4,223L-300.4,223c-5.4,0-9.8-4.4-9.8-9.8v-7.7c0-5.4,4.4-9.8,9.8-9.8l0,0c5.4,0,9.8,4.4,9.8,9.8v7.7
			C-290.7,218.6-295,223-300.4,223z"/>
	</g>
	<g id="maybe1" class="st0">
		<rect x="-755.9" y="118.1" class="st2" width="380.4" height="309.5"/>
		
			<text transform="matrix(1.1405 0.5811 -0.454 0.891 -747.8411 230.8984)" class="st1" style="font-family:'AndreasStd'; font-size:181px; letter-spacing:10.2;">S</text>
		
			<text transform="matrix(1.6203 0 0 1 -653.2837 283.6074)" class="st1" style="font-family:'AndreasStd'; font-size:142.99px; letter-spacing:-31.5;">L</text>
		<rect x="-750.3" y="121" class="st3" width="207.3" height="200"/>
	</g>
	<g id="maybe2" class="st0">
		<path class="st1" d="M-592,317.3v-10c15.1,0,27.3-15.8,27.3-35.2h10C-554.7,297.1-571.4,317.3-592,317.3z"/>
		<path class="st1" d="M-582.7,226.2L-582.7,226.2c-5.4,0-9.8-4.4-9.8-9.8v-7.7c0-5.4,4.4-9.8,9.8-9.8l0,0c5.4,0,9.8,4.4,9.8,9.8
			v7.7C-572.9,221.8-577.3,226.2-582.7,226.2z"/>
	</g>
	<g id="Layer_9">
	</g>
	<g id="Layer_11">
	</g>
	<g id="letter_fill" class="st0">
		<g class="st1">
			<g>
				<path class="st4" d="M-661.7-87.3c-2.9,10-1.8,20.8,2.9,30.1c1.3,2.5,5.4,0.8,4.6-1.9c-3.1-10.1-6.3-20.5-5.4-31.3
					c-1.7,0-3.3,0-5,0c1,11.8,2.2,23.8,7.7,34.5c1.3,2.5,5.6,0.7,4.6-1.9c-3.2-8.2-4.7-16.8-4.4-25.6c-1.6,0.2-3.3,0.4-4.9,0.7
					c1.4,8.7,2.8,17.4,4.2,26c1.6-0.4,3.2-0.9,4.8-1.3c-2.5-9.5-5.6-18.8-9.3-27.9c-0.5-1.2-1.4-2-2.7-1.8c-1.2,0.2-2.3,1.2-2.2,2.5
					c0.7,10,2.5,19.9,5.2,29.5c1.5-0.6,3-1.3,4.6-1.9c-4.5-8.3-6.7-17.6-6.5-27.1c-1.7,0-3.3,0-5,0c-0.1,9,1.2,18,3.9,26.6
					c1.5-0.6,3-1.3,4.6-1.9c-5.1-8.2-7.2-18-5.6-27.5c-1.6-0.2-3.3-0.4-4.9-0.7c0.2,7.3,1,14.6,2.5,21.7c0.6,2.7,5.3,2.2,4.9-0.7
					c-1.3-10-1.4-20-0.3-30c0.1-1.2-1-2.3-2.2-2.5c-1.3-0.2-2.3,0.6-2.7,1.8c-1.4,4-2.2,8.2-2.6,12.4c1.5-0.4,3.1-0.8,4.7-1.3
					c-2.8-5.6,1.7-11.4,5.3-15.3c-1.3-1-2.6-2-3.9-3c-2.6,5.2-3.9,10.9-3.9,16.7c0,2.4,3.5,3.5,4.7,1.3c2.2-4.3,4-8.8,5.5-13.4
					c-1.6-0.2-3.3-0.4-4.9-0.7c0.6,5,1,10,1.2,15c0.1,3.2,5,3.2,5,0c-0.1-5.4,0.7-10.8,2.2-16c-1.6-0.2-3.3-0.4-4.9-0.7
					c-0.1,3.4-0.5,6.7-1.4,10c1.6,0.4,3.2,0.9,4.8,1.3c1-5.9,3.3-11.4,6.8-16.2c-1.4-0.8-2.9-1.7-4.3-2.5c-1.8,2.6-4.3,4.5-7.2,5.8
					c1.2,0.7,2.5,1.4,3.8,2.2c-0.2-1.8,0-3.5,1-5.1c0.4-0.8,1-1.5,1.7-2c0.2-0.2,0.4-0.1,0.5-0.3c-0.2,0-0.1,0,0.2,0
					c-0.6-0.1-1-0.4-1.2-0.9c0.1-0.6,0.2-1.3,0.2-1.9c-2.4,3.6-6.2,6-10.3,7c1,0.6,2,1.2,3.1,1.8c-0.3-1.1,1-2.1,1.8-2.6
					c1.4-1,3-1.9,4.6-2.7c3.1-1.5,6.5-2.5,9.9-2.9c-0.6-1.4-1.2-2.8-1.8-4.3c-2.2,2.2-4.2,4.4-6.1,6.9c-0.8,1.1-1,2.5,0,3.5
					c0.9,0.9,2.7,1.1,3.5,0c3-3.7,7.6-5.5,12.3-4.9c2.6,0.3,3.2-3.5,1.3-4.7c-3.1-1.8-6.6-2.3-10.1-1.6c0.4,1.6,0.9,3.2,1.3,4.8
					c6.7-1.4,13.6-0.8,20.1,1.6c0.4-1.6,0.9-3.2,1.3-4.8c-4-1.4-8.3-1.5-12.4-0.4c-2.7,0.7-2.2,4.9,0.7,4.9c8,0,15.7,2.6,22,7.4
					c0.8-1.4,1.7-2.9,2.5-4.3c-4.5-3.3-9.7-5.1-15.2-5.8c-2.5-0.3-3.3,3.5-1.3,4.7c5.1,2.9,9.6,6.5,13.6,10.7
					c1.2,1.3,3.8,0.8,4.2-1.1c0.4-2.4,0.4-4.6-0.2-7c-0.8-2.9-4.7-2-4.9,0.7c-0.2,2,0.3,3.8,1.1,5.6c0.3,0.7,1.4,1.3,2.2,1.2
					c2.9-0.2,5.2-3,4.3-5.9c-0.7-2.3-4.2-2.5-4.8,0c-0.4,1.4-0.4,2.8,0.1,4.2c0.3,1,1.3,1.9,2.4,1.8c2.3-0.1,4.2-1.8,4.3-4.2
					c0.1-2.4-2-4-4.2-4.2c-1.3-0.1-2.6,1.3-2.5,2.5c0.2,2.2,0,4.5-0.9,6.5c1.3-0.2,2.6-0.3,3.9-0.5c-0.5-0.4-0.7-0.7-0.5-1.3
					c-1.6-0.2-3.3-0.4-4.9-0.7c-0.3,2.2-0.5,4.3-0.8,6.5c-0.3,2.5,3.6,3.3,4.7,1.3c0.6-1.1,1.2-2.3,1.8-3.4
					c-1.5-0.4-3.1-0.8-4.7-1.3c0.1,0.9,0,1.6-0.6,2.2c1.4,0.8,2.8,1.6,4.2,2.4c0.4-1.3,1.1-2.3,2.1-3.3c-1.4-0.8-2.8-1.6-4.2-2.4
					c-0.3,0.9-0.7,1.9-1,2.8c-0.4,1.2,0.4,2.5,1.5,2.9c1.2,0.5,2.4,0,3.1-1c1.2-1.7,2.4-3.4,3.6-5.1c1.2-1.7-0.5-3.6-2.2-3.8
					c-1-0.1-1.9-0.2-2.9-0.3c-0.9-0.1-1.9-0.3-2.7-0.2c-2,0.3-2.9,2.7-2.4,4.5c1.4-0.8,2.8-1.6,4.2-2.4c0.2,0.3,0.2,0.4,0.1,0
					c-0.1-0.3-0.2-0.6-0.3-0.9c-0.3-0.6-0.7-1.1-1.3-1.4c-1.3-0.8-3.1-0.7-4,0.6c-2,2.5,1.1,5.5,3.7,4.2c0.8-0.4,1.2-1.3,1.2-2.2
					c0-0.1,0-0.1,0-0.2c0.1-3.2-4.9-3.2-5,0c0,0.1,0,0.1,0,0.2c0.4-0.7,0.8-1.4,1.2-2.2c0,0-0.1,0-0.1,0.1c0.6-0.1,1.3-0.2,1.9-0.2
					c0.2,0.1,0.4,0.3,0.7,0.4c0.2,0.4,0.4,0.7,0.6,1.1c0-0.1,0-0.1,0-0.2c-0.1,0.6-0.2,1.3-0.2,1.9c0-0.1,0.1-0.1,0.1-0.2
					c-0.3,0.3-0.6,0.6-0.9,0.9c0.1,0,0.2-0.1,0.3-0.1c-0.4,0.1-0.8,0.2-1.3,0.3c0.1,0,0.2,0,0.3,0c-0.4-0.1-0.8-0.2-1.3-0.3
					c-0.4-0.7-0.5-0.7-0.3-0.2c0.1,0.2,0.1,0.4,0.2,0.6c0.2,0.5,0.5,0.9,0.8,1.3c1.6,2,4.9-0.2,4.2-2.4c-0.1,0.3-0.2,0.7-0.3,1.1
					c-0.6,0.2-1.2,0.5-1.8,0.7c1.8,0.2,3.5,0.3,5.3,0.5c-0.7-1.2-1.4-2.5-2.2-3.8c-1.2,1.7-2.4,3.4-3.6,5.1c1.5,0.6,3,1.3,4.6,1.9
					c0.3-0.9,0.7-1.9,1-2.8c0.9-2.5-2.5-4-4.2-2.4c-1.6,1.5-2.8,3.4-3.4,5.5c-0.7,2.3,2.5,4.3,4.2,2.4c1.4-1.6,2.3-3.6,2.1-5.7
					c-0.2-2.3-3.4-3.6-4.7-1.3c-0.6,1.1-1.2,2.3-1.8,3.4c1.5,0.4,3.1,0.8,4.7,1.3c0.3-2.2,0.5-4.3,0.8-6.5c0.2-1.2-1.1-2.3-2.2-2.5
					c-1.3-0.2-2.3,0.6-2.7,1.8c-0.7,2.2,0,4.7,1.7,6.2c1.1,0.9,3.2,1.1,3.9-0.5c1.3-2.9,1.9-5.9,1.6-9.1c-0.8,0.8-1.7,1.7-2.5,2.5
					c-1-0.1-1-1.5-0.1-1.6c0.8,0.6,1.6,1.2,2.4,1.8c-0.2-0.6-0.2-0.9-0.1-1.5c-1.6,0-3.2,0-4.8,0c-0.1-0.3,0.5-0.4,0.5-0.4
					c0.7,0.4,1.4,0.8,2.2,1.2c-0.5-1-0.5-2-0.4-3.1c-1.6,0.2-3.3,0.4-4.9,0.7c0.4,1.4,0.5,2.9,0.2,4.3c1.4-0.4,2.8-0.7,4.2-1.1
					c-4.3-4.6-9.2-8.4-14.6-11.5c-0.4,1.6-0.8,3.1-1.3,4.7c4.6,0.6,8.9,2.4,12.6,5.1c1.1,0.8,2.8,0.2,3.4-0.9
					c0.8-1.3,0.2-2.6-0.9-3.4c-7-5.3-15.7-8.2-24.5-8.1c0.2,1.6,0.4,3.3,0.7,4.9c3.3-0.9,6.5-0.7,9.7,0.4c1.3,0.4,2.7-0.5,3.1-1.8
					c0.4-1.4-0.5-2.6-1.8-3.1c-7.3-2.7-15.2-3.2-22.7-1.6c-1.3,0.3-2.1,1.8-1.8,3.1c0.4,1.4,1.8,2,3.1,1.8c2.2-0.4,4.3,0,6.2,1.1
					c0.4-1.6,0.8-3.1,1.3-4.7c-5.9-0.7-12.1,1.8-15.8,6.3c1.2,1.2,2.4,2.4,3.5,3.5c1.9-2.4,3.9-4.7,6.1-6.9c1.4-1.4,0.5-4.5-1.8-4.3
					c-4.8,0.5-9.3,1.9-13.6,4.1c-3.7,1.9-9.1,5.4-7.5,10.4c0.4,1.3,1.7,2.1,3.1,1.8c3.3-0.8,6.3-2.3,8.9-4.4
					c2.2-1.8,6.7-5.7,3.7-8.5c-2.6-2.5-6.3-0.2-8.2,2c-2.2,2.6-3.3,6-2.9,9.4c0.2,1.9,1.9,3,3.8,2.2c3.6-1.7,6.7-4.4,9-7.6
					c0.8-1.1,0.2-2.8-0.9-3.4c-1.3-0.7-2.6-0.2-3.4,0.9c-3.8,5.1-6.3,11.1-7.3,17.4c-0.2,1.3,0.3,2.7,1.8,3.1
					c1.3,0.3,2.7-0.4,3.1-1.8c0.9-3.7,1.5-7.5,1.5-11.4c0.1-2.9-4.1-3.3-4.9-0.7c-1.6,5.6-2.4,11.4-2.4,17.3c1.7,0,3.3,0,5,0
					c-0.2-5-0.6-10-1.2-15c-0.2-1.2-0.8-2.3-2.2-2.5c-1.2-0.2-2.4,0.6-2.7,1.8c-1.3,4.2-3,8.3-5,12.3c1.5,0.4,3.1,0.8,4.7,1.3
					c0-4.9,1-9.8,3.2-14.2c1.2-2.4-1.9-5.2-3.9-3c-2.7,2.9-5.2,6.1-6.6,9.8c-1.4,3.8-1.3,7.9,0.5,11.5c0.5,1,1.8,1.4,2.8,1.2
					c1.1-0.3,1.7-1.3,1.8-2.4c0.3-3.8,1.2-7.5,2.4-11.1c-1.6-0.2-3.3-0.4-4.9-0.7c-1.1,10-1,20.1,0.3,30c1.6-0.2,3.3-0.4,4.9-0.7
					c-1.4-6.7-2.1-13.5-2.3-20.4c0-1.2-0.9-2.3-2.2-2.5c-1.1-0.1-2.5,0.6-2.7,1.8c-1.8,10.8,0.3,22,6.1,31.4
					c1.5,2.3,5.5,0.9,4.6-1.9c-2.6-8.2-3.8-16.7-3.7-25.3c0-3.2-5-3.2-5,0c-0.2,10.3,2.3,20.5,7.2,29.6c1.3,2.5,5.3,0.8,4.6-1.9
					c-2.6-9.2-4.3-18.6-5-28.2c-1.6,0.2-3.3,0.4-4.9,0.7c3.7,9.1,6.8,18.4,9.3,27.9c0.3,1.3,1.8,2.1,3.1,1.8c1.4-0.4,2-1.7,1.8-3.1
					c-1.4-8.7-2.8-17.4-4.2-26.1c-0.5-2.9-4.8-2-4.9,0.7c-0.3,9.2,1.2,18.4,4.6,26.9c1.5-0.6,3-1.3,4.6-1.9c-5-9.8-6-21.1-7-32
					c-0.3-3.2-4.7-3.2-5,0c-0.9,11.2,2.3,22.1,5.6,32.6c1.5-0.6,3-1.3,4.6-1.9c-4.1-8.1-4.9-17.6-2.4-26.2
					C-656-89.1-660.8-90.4-661.7-87.3L-661.7-87.3z"/>
			</g>
		</g>
		<g class="st1">
			<g>
				<path class="st4" d="M-630.4-108.7c1.1,0.6,2.3,1.1,3.6,1.5c1.2,0.4,2.5,0.6,3.8,0.8c0.6,0.1,1.4-0.3,1.8-0.7
					c0.4-0.4,0.8-1.2,0.7-1.8c0-0.7-0.2-1.3-0.7-1.8c-0.2-0.1-0.3-0.3-0.5-0.4c-0.4-0.2-0.8-0.3-1.3-0.3c-0.1,0-0.2,0-0.3,0
					c0.2,0,0.4,0.1,0.7,0.1c-1.5-0.2-2.9-0.6-4.3-1.2c0.2,0.1,0.4,0.2,0.6,0.2c-0.5-0.2-1-0.4-1.5-0.7c-0.6-0.3-1.3-0.4-1.9-0.2
					c-0.6,0.2-1.2,0.6-1.5,1.2s-0.5,1.3-0.2,1.9C-631.3-109.5-630.9-109-630.4-108.7L-630.4-108.7z"/>
			</g>
		</g>
		<g class="st1">
			<g>
				<path class="st4" d="M-663.3-70.5c-0.5-0.1-0.9-0.2-1.3-0.4c-1.6-0.4-3.1,0.8-3.2,2.4c-0.1,5.9,1,11.7,3.2,17.2
					c0.5,1.2,1.7,2.1,3.1,1.8c1.3-0.4,2.1-1.8,1.8-3.1c-1.6-5.7-3-11.5-4.1-17.3c-1.6,0.4-3.2,0.9-4.8,1.3c1.2,5,2.3,10,3.5,15.1
					c1.5-0.6,3-1.3,4.6-1.9c-2.5-4.4-3.9-9.3-3.9-14.4c-1.7,0-3.3,0-5,0c0.1,2.9,0.3,5.9,1,8.7c0.6,2.4,1.8,4.7,3.1,6.8
					c2.4,3.7,5.7,7.2,6.7,11.6c1.6-0.4,3.2-0.9,4.8-1.3c-1.8-5.6-3.1-11.3-3.6-17.2c-0.6,0.8-1.2,1.6-1.8,2.4
					c-2.7,0.4-1.3-1-1.2-0.1c0,0.2,0.2,0.5,0.2,0.8c0.2,0.8,0.5,1.6,0.7,2.3c0.5,1.6,0.9,3.1,1.4,4.7c0.9,3.1,1.9,6.3,2.8,9.4
					c0.4,1.3,1.8,2.1,3.1,1.8c1.4-0.4,2-1.7,1.8-3.1c-0.7-4.6-1.5-9.1-2.2-13.7c-1.6,0.4-3.2,0.9-4.8,1.3c1.4,4,2.5,8.1,3.4,12.3
					c1.5-0.6,3-1.3,4.6-1.9c-2-4.2-3.1-8.8-3.3-13.5c-1.6,0.2-3.3,0.4-4.9,0.7c1.6,5.5,2.1,11.2,1.3,16.9c1.4-0.4,2.8-0.7,4.2-1.1
					c-3.2-4-5.4-8.7-6.7-13.7c-0.8-3.1-5.5-1.8-4.8,1.3c1,4.8,2.1,9.6,3.1,14.4c1.5-0.6,3-1.3,4.6-1.9c-2.7-4.5-4.3-9.5-4.6-14.7
					c-1.6,0.2-3.3,0.4-4.9,0.7c1.6,6.1,3.1,12.1,4.7,18.2c1.5-0.6,3-1.3,4.6-1.9c-1.6-3.4-2.4-7.2-2.5-10.9
					c-1.5,0.4-3.1,0.8-4.7,1.3c1.2,2.5,1.1,5.4,1.3,8.1c0.2,3.1,0.5,6.2,2,9c0.6,1.1,2,1.5,3.1,1c1.2-0.5,1.6-1.7,1.5-3
					c-1-6.9-2.5-13.7-4.7-20.3c-0.4-1.2-1.5-2-2.7-1.8c-1.1,0.2-2.3,1.2-2.2,2.5c0.6,5.6,1.7,11.1,3.5,16.5c1.6-0.4,3.2-0.9,4.8-1.3
					c-1.1-2.8-1.6-5.6-1.4-8.6c-1.2,0.7-2.5,1.4-3.8,2.2c0.6,0.5,0.9,1.5,1.1,2.3c0.4,1.4,0.8,2.8,1.1,4.2c0.7,2.9,1.4,5.8,2,8.6
					c0.6,2.7,5.2,2.2,4.9-0.7c-0.4-4.1,0-8.1,1.2-12.1c-1.6,0-3.2,0-4.8,0c1.2,3.1,1.9,6.4,2,9.7c0.1,3.2,5,3.2,5,0
					c0-3.6,0-7.2,0-10.8c-1.6,0.2-3.3,0.4-4.9,0.7c1.2,3.4,1.5,6.9,0.6,10.4c1.6,0.4,3.2,0.9,4.8,1.3c0.1-0.4,0.2-0.8,0.2-1.2
					c0.3-1.3-0.4-2.7-1.8-3.1c-1.2-0.3-2.8,0.4-3.1,1.8c-0.1,0.4-0.2,0.8-0.2,1.2c-0.6,3.1,4,4.5,4.8,1.3c1.1-4.3,1-8.9-0.6-13.1
					c-0.9-2.5-4.9-2.3-4.9,0.7c0,3.6,0,7.2,0,10.8c1.7,0,3.3,0,5,0c-0.1-3.8-0.8-7.5-2.2-11.1c-0.9-2.2-4-2.5-4.8,0
					c-1.3,4.3-1.8,8.9-1.4,13.4c1.6-0.2,3.3-0.4,4.9-0.7c-0.7-3.4-1.5-6.7-2.4-10c-0.8-3.1-1.5-6.1-4.2-8.1
					c-1.6-1.2-3.7,0.5-3.8,2.2c-0.2,3.4,0.4,6.8,1.6,9.9c0.5,1.2,1.7,2.1,3.1,1.8c1.3-0.3,2.2-1.8,1.8-3.1c-1.6-4.9-2.8-10-3.3-15.1
					c-1.6,0.2-3.3,0.4-4.9,0.7c2.2,6.6,3.7,13.4,4.7,20.3c1.5-0.6,3-1.3,4.6-1.9c-1.3-2.5-1.2-5.3-1.4-8c-0.2-3.1-0.5-6.2-1.9-9
					c-1.1-2.3-4.7-1.1-4.7,1.3c0.1,4.7,1.2,9.2,3.1,13.5c1.2,2.6,5.2,0.7,4.6-1.9c-1.6-6.1-3.1-12.1-4.7-18.2
					c-0.7-2.7-5.1-2.2-4.9,0.7c0.3,6.1,2.1,12,5.3,17.2c1.5,2.5,5.2,0.8,4.6-1.9c-1-4.8-2.1-9.6-3.1-14.4c-1.6,0.4-3.2,0.9-4.8,1.3
					c1.6,5.8,4.3,11.1,8,15.9c1.1,1.4,3.9,0.7,4.2-1.1c1-6.6,0.6-13.2-1.3-19.5c-0.8-2.6-5-2.2-4.9,0.7c0.2,5.6,1.6,11,4,16
					c0.5,1.1,2.1,1.5,3.1,1c1.2-0.5,1.7-1.7,1.5-3c-0.9-4.2-2-8.3-3.4-12.3c-1.1-3.1-5.3-1.8-4.8,1.3c0.7,4.6,1.5,9.1,2.2,13.7
					c1.6-0.4,3.2-0.9,4.8-1.3c-1.2-4.1-2.4-8.2-3.6-12.2c-1-3.4-1.7-9.1-6.5-8.4c-1,0.2-1.9,1.4-1.8,2.4c0.6,6.3,1.9,12.5,3.8,18.5
					c1,3,5.6,1.8,4.8-1.3c-1.1-4.5-4-8.1-6.6-11.8c-1.2-1.8-2.4-3.6-3-5.6c-0.9-2.7-1-5.5-1.1-8.3c-0.2-3.2-5-3.2-5,0
					c0.1,6,1.6,11.8,4.6,16.9c1.4,2.5,5.2,0.8,4.6-1.9c-1.2-5-2.3-10-3.5-15.1c-0.7-3.2-5.5-1.8-4.8,1.3c1.2,5.8,2.6,11.6,4.1,17.3
					c1.6-0.4,3.2-0.9,4.8-1.3c-2.1-5-3.1-10.4-3-15.8c-1,0.8-2.1,1.6-3.2,2.4c0.5,0.1,0.9,0.2,1.3,0.4
					C-661.5-64.8-660.2-69.6-663.3-70.5L-663.3-70.5z"/>
			</g>
		</g>
		<g class="st1">
			<g>
				<path class="st4" d="M-667.9-58.3c0.1,3.3,0.9,6.5,2.4,9.4c0.7,1.4,1.6,2.8,2.6,4c1.4,1.7,4.5,2.5,5.7,0.1
					c0.6-1.2,0.3-2.8-0.9-3.4c-1.2-0.6-2.8-0.3-3.4,0.9c0.7-0.3,1.5-0.6,2.2-0.9c0.1,0,0.2,0.1,0.3,0.2c-0.3-0.2,0.1,0.1,0.1,0.1
					s-0.6-0.7-0.2-0.2c-0.3-0.5-0.7-1-1-1.5s-0.6-1-0.8-1.4c-0.1-0.2-0.2-0.5-0.4-0.7c-0.1-0.1-0.1-0.2-0.2-0.4
					c-0.2-0.3,0.2,0.5,0-0.1c-0.4-1-0.7-2.1-1-3.2c-0.1-0.3-0.1-0.5-0.2-0.8c0-0.2,0-0.3-0.1-0.5c-0.1-0.4,0,0.4,0,0
					c-0.1-0.6-0.1-1.2-0.1-1.8c0-1.3-1.1-2.6-2.5-2.5C-666.7-60.8-667.9-59.7-667.9-58.3L-667.9-58.3z"/>
			</g>
		</g>
		<g class="st1">
			<g>
				<path class="st4" d="M-672.1-86.8c-0.5,2.7-0.5,5.4,0,8.1c1.6-0.4,3.2-0.9,4.8-1.3c-0.1-0.5-0.2-1-0.3-1.6
					c0,0.2,0.1,0.4,0.1,0.7c-0.2-1.4-0.2-2.8,0-4.2c0,0.2-0.1,0.4-0.1,0.7c0.1-0.6,0.2-1.4,0.4-1.9c-0.1,0.2-0.2,0.4-0.2,0.6
					c0,0,0-0.1,0.1-0.1c-0.3,0.3-0.6,0.6-0.9,0.9c0,0,0,0,0.1,0c-0.6,0.1-1.3,0.2-1.9,0.2c0,0,0,0,0.1,0c1.3,0.3,2.8-0.4,3.1-1.8
					c0.3-1.3-0.4-2.8-1.8-3.1c-1.2-0.3-2.4,0.2-3,1.3C-671.9-87.8-672-87.3-672.1-86.8c-0.2,1-0.3,1.9-0.4,2.9
					c-0.1,1.7,0.1,3.5,0.5,5.2c0.3,1.3,1.8,2.2,3.1,1.8c1.4-0.4,2-1.7,1.8-3.1c-0.1-0.4-0.1-0.8-0.2-1.2c0,0.2,0.1,0.4,0.1,0.7
					c-0.2-1.5-0.2-3,0-4.5c0,0.2-0.1,0.4-0.1,0.7c0-0.3,0.1-0.7,0.2-1c0.1-0.7,0.1-1.3-0.2-1.9c-0.3-0.5-0.9-1-1.5-1.2
					C-670.2-88.8-671.8-88.2-672.1-86.8L-672.1-86.8z"/>
			</g>
		</g>
		<g class="st1">
			<g>
				<path class="st4" d="M-718.7-14.2c0.3-0.4,0.5-0.8,0.7-1c0.3-0.4,0.7-0.7,1-1.1c0.5-0.4,0.4-0.4,0.9-0.7
					c0.5-0.3,0.9-0.5,1.4-0.8c-1.1-1.1-2.3-2.3-3.4-3.4c-0.6,0.8-1.6,1.7-2.6,2.2c1.2,0.5,2.5,1,3.7,1.5c-0.1-0.4-0.1-0.1-0.1,0.1
					c0-0.5-0.1,0.1,0.1-0.4c0-0.1,0.1-0.1,0.1-0.2c-0.1,0.1-0.1,0.1,0,0c0.2-0.2,0.4-0.4,0.6-0.6c0.8-0.7,1.7-1.3,2.6-1.8
					c-1.1-1.1-2.3-2.3-3.4-3.4c-0.7,1.2-1.2,2.4-1.7,3.7c1.6,0.2,3.3,0.4,4.9,0.7c0.1-0.9,0,0.2,0-0.3c0-0.2,0.1-0.5,0.2-0.7
					c0.1-0.5,0.2-0.9,0.4-1.4c0.1-0.3,0.2-0.4,0.4-0.8c0.2-0.5,0.5-0.9,0.8-1.3c-1.5-0.4-3.1-0.8-4.7-1.3c-0.2,4.6,1.1,9.3,3.7,13.1
					c0.7,1,1.9,1.5,3.1,1c1.1-0.5,1.8-1.7,1.5-2.9c-0.8-2.4-2.1-4.6-4-6.3c-1.8-1.6-4.8-0.1-4.2,2.4c0.8,2.9,2.8,5.2,4.8,7.4
					c1.2-1.2,2.4-2.4,3.5-3.5c-2.8-2.4-5.8-4.5-9-6.1c-2.3-1.1-4.5,1.1-3.4,3.4c1.7,3.5,4.6,6.4,8,8.2c0.8-1.4,1.7-2.9,2.5-4.3
					c-3.4-1.8-6.8-3.7-10.2-5.5c-1-0.5-2.2-0.4-3,0.4c-0.7,0.7-1.1,2.2-0.4,3c3.5,4.6,8.7,7.1,14.3,8.6c1.2,0.3,2.5-0.3,3-1.4
					c0.5-1.2,0-2.4-1-3.1c-1.1-0.9-2.4-2.1-3.4-3.2c-1,1.3-2,2.6-3,3.9c2.4,1.4,4.8,2.8,7.2,4.1c1.2,0.7,2.7,0.3,3.4-0.9
					s0.2-2.7-0.9-3.4c-1.9-1.2-3.6-2.6-5.3-4.1c-1,1.3-2,2.6-3,3.9c2.3,1.2,4.4,2.5,6.5,4.1c0.8-1.4,1.7-2.9,2.5-4.3
					c-0.5-0.3-1-0.6-1.5-0.9c-0.5-0.4-0.7-0.5-1.1-0.8c-0.4-0.4-0.8-0.7-1.2-1.1c-0.2-0.2-0.4-0.4-0.6-0.6c-0.1-0.1-0.2-0.3-0.4-0.4
					c-0.2-0.2-0.2-0.3-0.1-0.1c-1.1,1.1-2.3,2.3-3.4,3.4c1.2,0.7,2,1.4,3,2.3s2.6,1,3.5,0c0.9-0.9,1-2.6,0-3.5
					c-1.2-1.2-2.6-2.2-4-3.1c-0.9-0.6-2.3-0.4-3,0.4c-0.7,0.7-1,2.2-0.4,3c1.8,2.4,4,4.4,6.7,5.8c1.2,0.6,2.7,0.3,3.4-0.9
					c0.8-1.3,0.2-2.6-0.9-3.4c-2-1.5-4.2-2.9-6.5-4.1c-1.1-0.6-2.5-0.4-3.2,0.6s-0.7,2.4,0.2,3.3c2,1.8,4.1,3.4,6.3,4.9
					c0.8-1.4,1.7-2.9,2.5-4.3c-2.4-1.4-4.8-2.8-7.2-4.1c-1.1-0.6-2.5-0.4-3.2,0.6c-0.8,1-0.7,2.3,0.2,3.3c1.3,1.5,2.8,2.8,4.4,4
					c0.6-1.5,1.3-3,1.9-4.6c-2.4-0.6-4.4-1.3-6.4-2.4c-0.5-0.3-1-0.6-1.5-0.9c-0.2-0.1-0.5-0.3-0.7-0.4c-0.3-0.2-0.4-0.3-0.5-0.3
					c-0.5-0.4-0.9-0.7-1.3-1.2c-0.2-0.2-0.4-0.4-0.5-0.6c-0.1-0.1-0.6-0.7-0.5-0.5c-1.1,1.1-2.3,2.3-3.4,3.4
					c3.4,1.8,6.8,3.7,10.2,5.5c1.2,0.6,2.7,0.3,3.4-0.9c0.7-1.1,0.3-2.8-0.9-3.4c-1.5-0.8-2.4-1.5-3.6-2.7c-0.6-0.6-0.9-1-1.3-1.6
					c-0.5-0.7-0.9-1.4-1.3-2.2c-1.1,1.1-2.3,2.3-3.4,3.4c2.9,1.4,5.6,3.2,8,5.3c1,0.9,2.5,1,3.5,0s0.9-2.6,0-3.5
					c-0.4-0.4-0.8-0.9-1.2-1.3c-0.2-0.2-0.4-0.5-0.6-0.7c-0.3-0.3,0,0-0.3-0.4c-0.3-0.4-0.6-0.9-0.9-1.4c-0.3-0.5-0.3-0.7-0.5-1.4
					c-1.4,0.8-2.8,1.6-4.2,2.4c0.7,0.6,1.2,1.2,1.7,1.8c0.6,0.9,0.8,1.4,1.1,2.2c1.5-0.6,3-1.3,4.6-1.9c-2.2-3.2-3.2-6.7-3-10.6
					c0-1.1-0.8-2.1-1.8-2.4c-1.1-0.3-2.2,0.2-2.8,1.1c-1.5,2.1-2.2,4.5-2.5,7c-0.1,1.2,1,2.3,2.2,2.5c1.3,0.1,2.3-0.6,2.7-1.8
					c0.3-0.9,0.7-1.7,1.2-2.5c1.2-2.1-1.2-4.7-3.4-3.4c-2.9,1.7-6.9,4.6-5.6,8.6c0.5,1.5,2.2,2.3,3.7,1.5c1.8-1,3.2-2.4,4.4-4
					c0.6-0.9,0.3-2.3-0.4-3c-0.8-0.8-2-0.9-3-0.4c-2.4,1.2-4.5,3.1-5.9,5.3c-0.7,1.1-0.2,2.8,0.9,3.4
					C-720.9-12.6-719.4-13.1-718.7-14.2L-718.7-14.2z"/>
			</g>
		</g>
		<g class="st1">
			<g>
				<path class="st4" d="M-710-6c1.5,1.8,3.5,3,5.7,3.7c2.3,0.8,4.4-2.6,2.4-4.2c-1.6-1.2-3.1-2.5-4.7-3.7c-1,1.3-2,2.6-3,3.9
					c2.7,1.7,5.5,3.2,8.3,4.6c2.9,1.4,5.3-2.6,2.5-4.3c-2.3-1.4-4.4-2.9-6.3-4.7c-0.8,1.4-1.6,2.8-2.4,4.2c4,0.8,6.6,4.7,10.8,5.2
					c3.1,0.4,4.4-3.7,1.3-4.8c-1.3-0.5-2.7-1-4-1.5c-2.7-1-4.5,3.3-1.9,4.6c3.2,1.6,6.5,2.8,10,3.4c0.2-1.6,0.4-3.3,0.7-4.9
					c-3-0.2-5.9-0.7-8.8-1.5c-1.3-0.4-2.7,0.4-3.1,1.8c-0.4,1.4,0.5,2.5,1.8,3.1c5.2,2.2,11,3.1,16.7,2.5c2.9-0.3,3.3-3.9,0.7-4.9
					c-2.8-1.1-5.9-1.5-8.9-1.2c-1.2,0.1-2.3,0.8-2.5,2.2c-0.1,1.2,0.6,2.5,1.8,2.7c4,1,8.2,1.3,12.3,0.8c1.3-0.2,2.5-1,2.5-2.5
					c0-1.4-1.2-2.5-2.5-2.5c-2.3-0.1-4.7,0-7,0.2c-3.2,0.3-3.3,4.8,0,5c5.8,0.4,11.6-0.6,16.9-2.8c1.2-0.5,2.1-1.7,1.8-3.1
					c-0.4-1.4-1.8-2-3.1-1.8c-0.3,0.1-0.7,0.1-1,0.2c-2,0.4-2.6,3.7-0.6,4.6c1.3,0.6,2.5,0.8,3.8,0c2.4-1.5,0.8-5.3-1.9-4.6
					c-4.1,1.1-8.2,2.4-12.1,3.9c-1,0.4-1.8,1.2-1.8,2.4c0,1,0.8,2.2,1.8,2.4c4.3,0.9,8.8,0,13-1.1c3.6-0.9,6.9-2.4,9.1-5.5
					c1.3-1.9-0.8-4.2-2.8-3.7c-2.1,0.6-4,1.4-5.9,2.5c-2.3,1.4-0.8,5.6,1.9,4.6c3-1.1,5.5-2.9,7.4-5.5c1.4-1.9-0.9-4.1-2.8-3.7
					c-3.4,0.8-6.7,1.9-9.8,3.4c0.8,1.4,1.7,2.9,2.5,4.3c4.5-2.5,9.2-5.4,11.4-10.3c0.5-1.1,0.4-2.4-0.6-3.2
					c-0.9-0.7-2.5-0.8-3.3,0.2c-1.3,1.5-2.7,2.8-4.3,4.1c1.2,1.2,2.4,2.4,3.5,3.5c3.1-3.4,5.5-7.5,6.5-12c1.2-5.1,0.4-10.3,1.1-15.4
					c-1.5,0.4-3.1,0.8-4.7,1.3c1,1.8,1.1,3.8,1.2,5.8c0.1,2.3,0.3,4.6,1.1,6.7c0.5,1.3,1.6,2.1,3.1,1.8c2.4-0.5,2.9-3.1,3.5-5
					c0.7-2.2,1.4-4.4,2.1-6.5c-1.6-0.2-3.3-0.4-4.9-0.7c-0.2,3.6-0.3,7.2,0.7,10.7c0.6,2.2,4.4,2.5,4.8,0c0.8-4.1,1.5-8.1,2.2-12.2
					c-1.6,0-3.2,0-4.8,0c3.2,10.1-5.1,18.7-11.7,25.1c1.3,1,2.6,2,3.9,3c2.5-5.4,4.7-10.9,6.7-16.6c-1.6-0.2-3.3-0.4-4.9-0.7
					c0.1,2.2-0.7,4.3-1.2,6.4c-0.6,2.4-0.9,4.7-0.3,7.1c0.5,2,3.5,2.5,4.6,0.6c1.6-3,3.1-6,4.4-9.1c-1.5-0.4-3.1-0.8-4.7-1.3
					c-0.3,2.5-0.8,5.4-2.5,7.4c-0.9,1.1-2.1,1.7-3.3,2.4c-0.7,0.4-1.3,0.8-1.9,1.2c-0.3,0.2-0.6,0.5-0.9,0.8
					c-0.1,0.1-0.3,0.3-0.4,0.4c-0.3,0.3-0.3,0.3-0.1,0.1c0.4,0,0.9,0,1.3,0c-0.1,0-0.2-0.1-0.3-0.1c-1.3-0.5-2.7,0.5-3.1,1.8
					c-0.4,1.4,0.5,2.6,1.8,3.1c2.4,0.9,3.8-1.4,5.5-2.5c1.7-1,3.5-1.9,4.9-3.4c2.8-3.1,3.6-7.1,4.1-11.1c0.3-2.4-3.7-3.5-4.7-1.3
					c-1.3,3.1-2.8,6.2-4.4,9.1c1.5,0.2,3,0.4,4.6,0.6c-0.5-1.9,0.1-3.8,0.6-5.6c0.6-2.1,1.2-4.3,1.1-6.6c-0.1-2.9-4-3.3-4.9-0.7
					c-1.8,5.2-3.9,10.3-6.1,15.4c-1.1,2.5,1.8,5.1,3.9,3c4.1-3.9,8.3-8.1,10.9-13.2s3.8-11.1,2.1-16.7c-0.7-2.2-4.3-2.6-4.8,0
					c-0.8,4.1-1.5,8.1-2.2,12.2c1.6,0,3.2,0,4.8,0c-0.8-3.1-0.7-6.2-0.5-9.4c0.2-2.9-4.1-3.2-4.9-0.7c-0.5,1.6-1,3.2-1.5,4.7
					c-0.2,0.8-0.5,1.5-0.7,2.3c-0.1,0.3-0.3,0.8-0.4,1.1c0,0.8-0.6,0.2,0.5,0c1,0.6,2,1.2,3.1,1.8c-1.8-4.4-0.4-9.4-2.9-13.7
					c-0.6-1-1.8-1.4-2.8-1.2c-1.2,0.3-1.7,1.3-1.8,2.4c-0.6,4.5,0.1,9.2-0.8,13.7c-0.8,3.8-2.6,7.3-5.3,10.2
					c-2.2,2.4,1.1,5.5,3.5,3.5c1.5-1.2,3-2.6,4.3-4.1c-1.3-1-2.6-2-3.9-3c-1.8,4.1-5.8,6.4-9.6,8.5c-1.2,0.7-1.6,2.3-0.9,3.4
					c0.7,1.3,2.2,1.5,3.4,0.9c2.8-1.2,5.7-2.2,8.6-2.9c-0.9-1.2-1.9-2.4-2.8-3.7c-1.1,1.5-2.7,2.6-4.4,3.2c0.6,1.5,1.3,3,1.9,4.6
					c1.5-0.9,3-1.6,4.7-2c-0.9-1.2-1.9-2.4-2.8-3.7c-1.4,2.1-4.2,2.8-6.5,3.3c-3.2,0.8-6.7,1.7-10,1c0,1.6,0,3.2,0,4.8
					c4-1.5,8-2.8,12.1-3.9c-0.6-1.5-1.3-3-1.9-4.6c-0.1,0.1-0.2,0.1-0.3,0.2c0.4-0.1,0.8-0.2,1.3-0.3c0.1,0.1,0.2,0.1,0.2,0.2
					c-0.2,1.5-0.4,3-0.6,4.6c0.3-0.1,0.7-0.1,1-0.2c-0.4-1.6-0.9-3.2-1.3-4.8c-5,2.1-10.2,3-15.5,2.6c0,1.7,0,3.3,0,5
					c2.3-0.2,4.7-0.3,7-0.2c0-1.7,0-3.3,0-5c-3.7,0.4-7.4,0.2-11-0.6c-0.2,1.6-0.4,3.3-0.7,4.9c2.6-0.3,5.1,0,7.6,1
					c0.2-1.6,0.4-3.3,0.7-4.9C-689-3.2-694.1-4-699-6.1c-0.4,1.6-0.9,3.2-1.3,4.8c3.3,0.9,6.7,1.5,10.1,1.7c2.8,0.2,3.5-4.4,0.7-4.9
					c-3.1-0.5-6-1.5-8.8-2.9c-0.6,1.5-1.3,3.1-1.9,4.6c1.3,0.5,2.7,1,4,1.5c0.4-1.6,0.9-3.2,1.3-4.8c-2-0.3-3.5-1.4-5.1-2.5
					c-1.8-1.2-3.6-2.3-5.7-2.8c-2.3-0.4-4.4,2.4-2.4,4.2c2.3,2,4.7,3.9,7.4,5.5c0.8-1.4,1.7-2.9,2.5-4.3c-2.8-1.4-5.6-2.9-8.3-4.6
					c-1-0.6-2.5-0.3-3.2,0.6c-0.7,0.9-0.8,2.5,0.2,3.3c1.6,1.2,3.1,2.5,4.7,3.7c0.8-1.4,1.6-2.8,2.4-4.2c-1.4-0.5-2.5-1.3-3.5-2.4
					c-0.9-1-2.6-0.9-3.5,0C-711-8.6-710.9-7-710-6L-710-6z"/>
			</g>
		</g>
		<g class="st1">
			<g>
				<path class="st4" d="M-614.3-93.9c-0.1,0.1-0.2,0.2-0.2,0.3c-0.1,0.1-0.2,0.2-0.2,0.3c0,0.1-0.1,0.1-0.1,0.2
					c-0.1,0.1-0.1,0.3-0.2,0.4c-0.1,0.2-0.1,0.3-0.2,0.5c0,0.1,0,0.1,0,0.2v0.1c0,0.2-0.1,0.5-0.1,0.7c0,0.1,0,0.2,0,0.4
					c0,0.2,0.1,0.4,0.1,0.7c0.1,0.2,0.2,0.4,0.2,0.6c0.1,0.2,0.3,0.3,0.4,0.5c0.2,0.2,0.5,0.4,0.8,0.5c0.2,0.1,0.4,0.2,0.6,0.2
					c0.2,0.1,0.4,0.1,0.7,0c0.2,0,0.4-0.1,0.6-0.2c0.3-0.1,0.6-0.3,0.8-0.5s0.3-0.4,0.5-0.6c0,0,0-0.1,0.1-0.1
					c0-0.1,0.1-0.1,0.1-0.2c0.1-0.3,0.2-0.5,0.3-0.8c0-0.1,0.1-0.2,0.1-0.2c0.1-0.3,0.1-0.7,0-1c0-0.3-0.1-0.6-0.3-0.9
					s-0.4-0.5-0.6-0.7c-0.2-0.2-0.5-0.4-0.8-0.4c-0.2,0-0.4-0.1-0.7-0.1c-0.5,0-0.9,0.1-1.3,0.3c-0.2,0.1-0.3,0.3-0.5,0.4
					c-0.3,0.3-0.5,0.7-0.6,1.1c0,0.1-0.1,0.2-0.1,0.3c0.1-0.2,0.2-0.4,0.2-0.6c-0.1,0.2-0.2,0.3-0.3,0.5c0.1-0.2,0.3-0.3,0.4-0.5
					c0,0,0,0.1-0.1,0.1c1.4,0.6,2.8,1.2,4.3,1.8c0-0.1,0-0.3,0-0.4c0,0.2-0.1,0.4-0.1,0.7c0-0.1,0.1-0.3,0.1-0.4
					c-0.1,0.2-0.2,0.4-0.2,0.6c0-0.1,0.1-0.2,0.2-0.3c-0.1,0.2-0.3,0.3-0.4,0.5c0,0,0,0,0-0.1c0.2-0.2,0.4-0.5,0.5-0.8
					c0.2-0.3,0.2-0.6,0.2-1c0-0.3-0.1-0.7-0.2-1c-0.1-0.3-0.3-0.6-0.5-0.8c-0.2-0.1-0.3-0.3-0.5-0.4c-0.4-0.2-0.8-0.3-1.3-0.3
					c-0.2,0-0.4,0.1-0.7,0.1C-613.6-94.5-614-94.3-614.3-93.9L-614.3-93.9z"/>
			</g>
		</g>
		<g class="st1">
			<g>
				<path class="st4" d="M-618.5-55.8c1.6,0.7,3.3,0.7,4.9,0.3c1-0.2,1.9-1.4,1.8-2.4c0-1-0.7-2.2-1.8-2.4c-1.2-0.2-2.4-0.4-3.7-0.6
					c-1.2-0.2-2.4,0.2-3,1.5s0,2.3,1,3.1c1.3,1,3.2,0.5,4.7,0.3c1.3-0.2,2.6-0.4,3.9-0.6c1.2-0.2,2.3-0.5,3.5-0.8
					c0.7-0.2,1.4-0.5,2.1-0.9c0.3-0.1,0.5-0.3,0.8-0.4c0.1-0.1,0.3-0.2,0.4-0.2c0.5-0.3,0.1-0.3-1.3,0.1c-0.4-0.2-0.7-0.4-1.1-0.6
					c0,0,0,0.1,0.1,0.1c-0.2-0.4-0.4-0.7-0.6-1.1c0.1-0.9,0.1-1.2,0-0.8c-0.1,0.2,0,0.1,0.1-0.2c0.1-0.1,0.1-0.1,0.2-0.2
					c-0.2,0.2-0.2,0.2,0.1,0c-1.1,0.8-1.7,2.2-0.9,3.4c0.7,1,2.3,1.7,3.4,0.9c0.9-0.7,1.6-1.4,2-2.5c0.5-1.4,0-3-1.5-3.7
					c-1.1-0.5-2.2-0.2-3.2,0.5c-0.3,0.2-0.7,0.4-1.1,0.6c-0.2,0.1-0.3,0.1,0,0c-0.2,0.1-0.4,0.2-0.6,0.2c-1.5,0.5-3,0.8-4.5,1
					c-0.9,0.1-1.8,0.3-2.7,0.4c-0.4,0.1-0.9,0.1-1.3,0.2c-0.4,0.1,0.4,0.1,0,0c0.2,0,0.8,0.3,0.4,0.1c-0.6,1.5-1.3,3-1.9,4.6
					c1.2,0.2,2.4,0.4,3.7,0.6c0-1.6,0-3.2,0-4.8c-0.2,0-0.3,0.1-0.5,0.1c0.3,0,0.3,0,0,0c-0.2,0-0.5,0-0.7,0c0.5,0-0.2,0-0.2-0.1
					c-0.3-0.1-0.6-0.2-0.9-0.3c-1.2-0.5-2.8,0.5-3.1,1.8C-620.6-57.4-619.8-56.3-618.5-55.8L-618.5-55.8z"/>
			</g>
		</g>
		<g class="st1">
			<g>
				<path class="st4" d="M-619.2-55.8c0.5,0.1,1,0.2,1.5,0.2c0.3,0,0.6,0,0.9,0c0.3,0,0.7-0.1,1-0.2c0.3-0.1,0.6-0.3,0.8-0.5
					s0.4-0.5,0.5-0.8c0.2-0.3,0.2-0.6,0.2-1c0-0.2-0.1-0.4-0.1-0.7c-0.1-0.4-0.3-0.8-0.6-1.1c-0.2-0.1-0.3-0.3-0.5-0.4
					c-0.4-0.2-0.8-0.3-1.3-0.3s-0.9,0-1.3,0c0.2,0,0.4,0.1,0.7,0.1c-0.2,0-0.3,0-0.4-0.1c-0.3-0.1-0.7-0.1-1,0
					c-0.3,0-0.6,0.1-0.9,0.3c-0.3,0.2-0.5,0.4-0.7,0.6c-0.2,0.2-0.4,0.5-0.5,0.8c0,0.2-0.1,0.4-0.1,0.7c0,0.5,0.1,0.9,0.3,1.3
					c0.1,0.2,0.3,0.3,0.4,0.5C-620-56.1-619.6-55.9-619.2-55.8L-619.2-55.8z"/>
			</g>
		</g>
		<g class="st1">
			<g>
				<path class="st4" d="M-616.6-56.8c-0.3,2.6,0.3,5.2,1.5,7.5c0.5,0.9,1.5,1.3,2.5,1.2c0.9-0.1,1.9-0.8,2.1-1.8
					c0.5-2.4,0.4-4.8-0.3-7.1c-0.3-1-1.3-1.9-2.4-1.8c-1.2,0-2,0.8-2.4,1.8c-0.6,1.5-0.9,3-0.9,4.6c-0.1,1.8,0.5,3.7,2,4.9
					s3.7,1.2,5.3,0c1.4-1.1,2.3-2.5,3-4.2c0.6-1.5,0.8-3.2,0.7-4.9c-0.1-1.2-0.9-2.3-2.2-2.5c-1.2-0.2-2.4,0.6-2.7,1.8
					c-0.5,1.7-0.7,3.4-0.7,5.1c0,0.9,0.1,1.9,0.3,2.8c0.3,1.6,2,2.7,3.6,2.2c1.4-0.4,1.9-1.7,2.4-3c0.3-0.7,0.5-1.4,0.7-2.1
					c0.4-1.5,0.8-3,1.1-4.6c-1.6,0-3.2,0-4.8,0c0.1,0.3,0.2,0.6,0.2,0.9c0-0.2-0.1-0.4-0.1-0.7c0.1,1.2-0.1,2.5-0.2,3.8
					c-0.1,1.3-0.3,2.6-0.4,4c1.6-0.2,3.3-0.4,4.9-0.7c0-0.1-0.1-0.2-0.1-0.3c0,0.2,0.1,0.4,0.1,0.7c-0.1-0.6,0-1.2,0.1-1.8
					s0.2-1.3,0.2-1.9c0.2-1.3,0.3-2.5,0.5-3.8c0.1-0.6-0.3-1.4-0.7-1.8c-0.4-0.4-1.2-0.8-1.8-0.7c-0.7,0-1.3,0.2-1.8,0.7
					s-0.6,1.1-0.7,1.8c-0.2,1.3-0.3,2.7-0.5,4c-0.2,1.4-0.6,2.9-0.2,4.3c0.4,1.2,1.5,2,2.7,1.8c0.5-0.1,1.1-0.3,1.4-0.7
					c0.5-0.5,0.7-1.1,0.7-1.8c0.2-1.5,0.3-3,0.5-4.6s0.5-3.2-0.1-4.8c-0.4-1-1.2-1.9-2.4-1.8c-1.1,0-2.2,0.7-2.4,1.8
					c-0.3,1.3-0.6,2.7-1,4c-0.2,0.6-0.3,1.2-0.6,1.8c0,0.2-0.1,0.3-0.2,0.5c0,0.1-0.1,0.2-0.1,0.2c0.1-0.3,0.2-0.4,0.1-0.2
					c-0.1,0.1-0.1,0.3-0.2,0.4c-0.4,0.8-0.2-0.1,1-0.6c0.2,0,0.4-0.1,0.7-0.1h-0.1c0.2,0,0.4,0.1,0.7,0.1h-0.1
					c0.4,0.2,0.7,0.4,1.1,0.6c0.1,0.1,0.2,0.2,0.3,0.4c0.2,0.4,0.2,0.5,0.2,0.3c0-0.1,0-0.3-0.1-0.4c0,0.2,0.1,0.4,0.1,0.7
					c-0.2-1.4-0.2-2.8,0-4.2c0,0.2-0.1,0.4-0.1,0.7c0.1-0.7,0.2-1.4,0.4-2.1c-1.6-0.2-3.3-0.4-4.9-0.7c0.1,0.7,0.1,1.4,0,2.1
					c0-0.2,0.1-0.4,0.1-0.7c-0.1,0.5-0.2,1.1-0.4,1.6c0,0.1-0.1,0.2-0.1,0.3c-0.1,0.4-0.1,0.1,0-0.1c-0.2,0.2-0.2,0.5-0.4,0.7
					c-0.1,0.2-0.3,0.4-0.4,0.6c-0.2,0.2,0.4-0.4,0.1-0.1c-0.1,0.1-0.2,0.2-0.3,0.3s-0.4,0.3-0.1,0.1c0.3-0.3,0,0-0.1,0
					s-0.1,0.1-0.2,0.1c-0.2,0.1-0.1,0,0.3-0.1c-0.1,0-0.3,0.1-0.4,0.1c0.2,0,0.4-0.1,0.7-0.1c-0.2,0-0.3,0-0.5,0
					c0.2,0,0.4,0.1,0.7,0.1c-0.1,0-0.5-0.2-0.1,0s0.1,0,0,0c-0.2-0.1,0.4,0.4,0.2,0.1c-0.1-0.1-0.3-0.4,0,0c0.2,0.3,0.1,0.1,0,0
					c-0.2-0.4,0,0.1,0.1,0.2c-0.1-0.1-0.2-0.6-0.2-0.8c0,0.2,0.1,0.4,0.1,0.7c-0.1-0.7,0-1.4,0-2.1c0,0.2-0.1,0.4-0.1,0.7
					c0.1-1,0.4-2,0.8-2.9c-1.6,0-3.2,0-4.8,0c0.2,0.7,0.4,1.4,0.5,2.1c0-0.2-0.1-0.4-0.1-0.7c0.1,1,0.1,2,0,3.1
					c0-0.2,0.1-0.4,0.1-0.7c0,0.2-0.1,0.4-0.1,0.6c1.5-0.2,3-0.4,4.6-0.6c-0.1-0.1-0.1-0.3-0.2-0.4c-0.1-0.2-0.2-0.6,0,0
					c-0.1-0.3-0.2-0.6-0.3-0.9c-0.2-0.6-0.3-1.2-0.4-1.8c0,0.2,0.1,0.4,0.1,0.7c-0.1-0.9-0.1-1.8,0-2.6c0.1-0.6-0.3-1.4-0.7-1.8
					c-0.4-0.4-1.2-0.8-1.8-0.7c-0.7,0-1.3,0.2-1.8,0.7C-616.3-58-616.5-57.5-616.6-56.8L-616.6-56.8z"/>
			</g>
		</g>
		<g class="st1">
			<g>
				<path class="st4" d="M-558.7,36.2c0.2-0.3,0.5-0.5,0.8-0.8c-0.2,0.1-0.3,0.3-0.5,0.4c0.3-0.2,0.6-0.4,1-0.6
					c-1.1-1.1-2.3-2.3-3.4-3.4c-0.2,0.4-0.5,0.7-0.8,1.1c0.1-0.2,0.3-0.3,0.4-0.5c-0.5,0.6-0.9,1.2-1.5,1.6c0.2-0.1,0.3-0.3,0.5-0.4
					c-0.2,0.1-0.3,0.2-0.5,0.3c0.2-0.1,0.4-0.2,0.6-0.2c-0.1,0-0.3,0.1-0.4,0.1c0.2,0,0.4-0.1,0.7-0.1c-0.1,0-0.1,0-0.2,0
					c-0.7,0-1.3,0.3-1.8,0.7c-0.2,0.2-0.4,0.5-0.5,0.8c-0.2,0.3-0.2,0.6-0.2,1c0,0.7,0.2,1.3,0.7,1.8c0.5,0.4,1.1,0.8,1.8,0.7
					c1.4,0,2.7-0.8,3.6-1.8c0.7-0.8,1.4-1.7,2-2.6c0.1-0.2,0.2-0.4,0.2-0.6c0.1-0.3,0.1-0.7,0-1c0-0.2-0.1-0.4-0.2-0.6
					c-0.1-0.3-0.3-0.6-0.5-0.8c-0.3-0.3-0.7-0.5-1.1-0.6c-0.3-0.1-0.7-0.1-1,0c-0.3,0-0.6,0.1-0.9,0.3c-0.3,0.2-0.7,0.4-1,0.6
					c-0.5,0.4-0.9,0.7-1.3,1.1c-0.4,0.5-0.7,1.1-0.7,1.8c0,0.3,0.1,0.7,0.2,1c0.1,0.3,0.3,0.6,0.5,0.8c0.5,0.4,1.1,0.8,1.8,0.7
					C-559.8,36.9-559.2,36.7-558.7,36.2L-558.7,36.2z"/>
			</g>
		</g>
		<g class="st1">
			<g>
				<path class="st4" d="M-560.5,34.2c-1.2-0.7-2.5-0.7-3.8-0.3c-0.8,0.2-1.6,0.5-2.4,0.7c-1.2,0.4-2,1.5-1.8,2.7
					c0.1,0.5,0.3,1.1,0.7,1.4c0.5,0.4,1.1,0.8,1.8,0.7c0.4,0,0.8-0.1,1.2-0.1c0.5-0.1,1.1-0.1,1.7-0.2c0.9-0.3,1.5-0.8,2.1-1.5
					c0.5-0.7,0.6-1.7,0.4-2.5c-0.1-0.6-0.6-1.2-1.2-1.5c-0.5-0.3-1-0.4-1.6-0.3c-0.5,0.1-1.1,0.3-1.4,0.7c-0.5,0.5-0.7,1.1-0.7,1.8
					v0.1c0-0.2,0.1-0.4,0.1-0.7c0,0.2-0.1,0.3-0.1,0.5c0.1-0.2,0.2-0.4,0.2-0.6c-0.1,0.2-0.2,0.3-0.3,0.4c0.1-0.2,0.3-0.3,0.4-0.5
					c-0.1,0.2-0.3,0.3-0.5,0.5c0.2-0.1,0.3-0.3,0.5-0.4c-0.2,0.1-0.3,0.2-0.5,0.3c0.2-0.1,0.4-0.2,0.6-0.2c-0.3,0.1-0.6,0.2-0.9,0.2
					c0.2,0,0.4-0.1,0.7-0.1c-0.4,0-0.9,0-1.3,0c-0.6-0.1-1.4,0.3-1.8,0.7c-0.4,0.4-0.8,1.2-0.7,1.8c0,0.7,0.2,1.3,0.7,1.8
					c0.2,0.1,0.3,0.3,0.5,0.4c0.4,0.2,0.8,0.3,1.3,0.3c1.3,0.1,2.7-0.1,3.8-0.7c0.7-0.4,1.2-0.9,1.6-1.6c0.2-0.3,0.3-0.7,0.5-1
					c0.1-0.4,0.2-0.8,0.2-1.2c-1.6,0.2-3.3,0.4-4.9,0.7c0,0,0,0,0,0.1c0-0.2-0.1-0.4-0.1-0.7c0,0.1,0,0.1,0,0.2
					c0-0.2,0.1-0.4,0.1-0.7c0,0.1,0,0.1-0.1,0.2c0.1-0.2,0.2-0.4,0.2-0.6c0,0.1-0.1,0.1-0.1,0.2c0.1-0.2,0.3-0.3,0.4-0.5
					c0,0-0.1,0.1-0.1,0.2c0.2-0.1,0.3-0.3,0.5-0.4c-0.1,0.1-0.2,0.1-0.3,0.2c0.2-0.1,0.4-0.2,0.6-0.2c-0.2,0.1-0.4,0.1-0.6,0.1
					c0.2,0,0.4-0.1,0.7-0.1c-0.6,0.1-1.2,0.1-1.8,0.2c0.2,1.6,0.4,3.3,0.7,4.9c0.5-0.2,1-0.3,1.5-0.5c0.5-0.1,0.9-0.3,1.4-0.4
					c-0.2,0-0.4,0.1-0.7,0.1c0.2,0,0.5,0,0.7,0c-0.2,0-0.4-0.1-0.7-0.1c0.1,0,0.2,0,0.4,0.1c-0.2-0.1-0.4-0.2-0.6-0.2
					c0.1,0,0.1,0.1,0.2,0.1c0.6,0.3,1.3,0.4,1.9,0.2c0.6-0.2,1.2-0.6,1.5-1.2c0.3-0.6,0.5-1.3,0.2-1.9
					C-559.6,35-559.9,34.5-560.5,34.2L-560.5,34.2z"/>
			</g>
		</g>
		<g class="st1">
			<g>
				<path class="st4" d="M-571.5,40c2.8-0.1,5.5-0.6,8.1-1.6c3-1.1,1.8-5.4-1.3-4.8c-3.7,0.7-7.4,1.2-11.1,1.5
					c-1.2,0.1-2.3,0.9-2.5,2.2c-0.1,1.1,0.5,2.5,1.8,2.7c2.5,0.4,4.8,0.4,7.3,0c1.2-0.2,2-1.7,1.8-2.7c-0.2-1.3-1.2-2-2.5-2.2
					c-2.8-0.3-5.7-0.2-8.5,0c-3,0.1-6,0.2-9.1,0.1c-2.9-0.1-5.9-0.2-8.8-0.4c-1.5-0.1-2.9-0.2-4.4-0.4c-0.9-0.1-2-0.1-2.7-0.7
					c-2.3-2.3-5.8,1.3-3.5,3.5c2.2,2.2,5.5,2.2,8.4,2.4c3.2,0.3,6.4,0.5,9.5,0.6s6.4,0.1,9.6,0c3.2-0.1,6.3-0.4,9.5,0
					c-0.2-1.6-0.4-3.3-0.7-4.9c-1.5,0.2-3.1,0.2-4.6,0c-0.2,1.6-0.4,3.3-0.7,4.9c4.2-0.4,8.3-1,12.4-1.7c-0.4-1.6-0.9-3.2-1.3-4.8
					c-2.2,0.8-4.4,1.3-6.8,1.4C-574.7,35.2-574.7,40.2-571.5,40L-571.5,40z"/>
			</g>
		</g>
		<g class="st1">
			<g>
				<path class="st4" d="M-604.4,27C-604.4,26.9-604.4,26.9-604.4,27c0.1-0.9,0.1-1.9-0.6-2.5c-0.8-0.6-1.5-0.9-2.5-0.7
					c-1.1,0.3-1.8,1.4-1.9,2.5c0,0.4,0.1,0.9,0.2,1.4c0,0.3,0.1,0.6,0.2,0.9c0.3,1.4,0.9,2.7,1.5,3.9c0.7,1.2,1.5,2.3,2.3,3.4
					c0.5,0.5,1,1.2,1.6,1.5c0.5,0.3,1.1,0.5,1.7,0.4c0.1,0,0.2,0,0.4,0c0.1,0,0.1,0,0.2,0c-0.3,0-0.6-0.1-0.8-0.2
					c0.5,0.4,1.4,0.4,1.9,0.2c0.6-0.2,1.2-0.6,1.5-1.2c0.7-1.3,0.2-2.6-0.9-3.4c-0.6-0.4-1.4-0.5-2.1-0.5c-0.4,0,0.1,0,0.2,0.1
					c0.1,0,0.2,0.1,0.4,0.2c0.3,0.3,0.4,0.3,0.3,0.2c-0.1-0.2-0.3-0.3-0.5-0.5s-0.3-0.4-0.5-0.6c-0.1-0.1-0.3-0.4-0.1-0.1
					c0.3,0.3,0-0.1-0.1-0.1c-0.3-0.4-0.5-0.8-0.8-1.2s-0.5-0.8-0.7-1.3c-0.1-0.2-0.2-0.4-0.3-0.6c-0.1-0.3,0.2,0.5,0,0.1
					c0-0.1-0.1-0.2-0.1-0.4c-0.2-0.5-0.3-0.9-0.4-1.4c-0.1-0.2-0.1-0.5-0.2-0.7c0-0.1,0-0.2,0-0.3c0-0.2,0-0.7,0,0.1
					c-0.1,0.4-0.2,0.8-0.3,1.3c0,0,0,0,0-0.1c-0.7,0.4-1.4,0.8-2.2,1.2l0,0c-0.6-0.2-1.2-0.5-1.8-0.7l0,0c-0.2-0.8-0.4-1.6-0.6-2.4
					l0,0c-0.1,0.7-0.1,1.3,0.2,1.9c0.3,0.5,0.9,1,1.5,1.1C-606.3,29-604.6,28.3-604.4,27L-604.4,27z"/>
			</g>
		</g>
		<g class="st1">
			<g>
				<path class="st4" d="M-601.3,40.2c0.2,0.1,0.5,0.1,0.8,0.2c1.3,0.3,2.8-0.4,3.1-1.8c0.3-1.3-0.4-2.7-1.8-3.1
					c-1.3-0.4-2.6-0.3-3.9-0.3c-1.2,0-2.5,0.1-3.7,0.1c-1.3,0-2.6,0.1-3.9,0.1c-0.6,0-1.2,0-1.9,0.1c-0.3,0-0.6,0-0.9,0
					c-0.1,0-0.7-0.1-0.8,0c0.3-0.3,1.1,0.7,1.2,0.9c0,0.3,0,0.3,0,0.2c0-0.2,0-0.1,0,0c0.1-0.7,0.3-1.3,0.4-2
					c0.1-1.3-0.2-2.6-0.3-3.9c0,0.2,0-0.4,0-0.5c0-0.3,0-0.6,0-0.8c0-0.6,0-1.1,0.1-1.7c0,0.3,0.1-0.5,0.1-0.6
					c0.1-0.3,0.1-0.5,0.2-0.8c0.2-0.6,0.4-1.2,0.6-1.7c-1.6-0.2-3.3-0.4-4.9-0.7c-0.1,4.8,0.3,9.9,3,13.9c0.6,0.8,1.5,1.3,2.5,1.2
					c0.9-0.1,1.9-0.8,2.1-1.8c0.6-4,0.5-8-0.6-11.9c-0.3-1.3-1.8-2.2-3.1-1.8c-1.4,0.5-2,1.7-1.8,3.1c0.6,3.9,1.6,8.1,4.7,10.8
					c1.3,1.1,2.9,0.8,3.9-0.5c0.8-1.1,0.6-2.5,0.4-3.7c-0.2-1.1-0.4-2.2-0.6-3.4c-0.4-2.2-0.8-4.5-1.2-6.7c-1.6,0.4-3.2,0.9-4.8,1.3
					c1.1,3.8,2.2,7.6,3.4,11.4c1.5-0.6,3-1.3,4.6-1.9c-0.1-0.2-0.2-0.5-0.3-0.7c-0.5-1.2-2.4-1.6-3.4-0.9c-1.2,0.8-1.5,2.1-0.9,3.4
					c0.1,0.2,0.2,0.5,0.3,0.7c0.5,1.1,2.1,1.5,3.1,1c1.1-0.5,1.8-1.7,1.5-3c-1.1-3.8-2.2-7.6-3.4-11.4c-0.4-1.2-1.8-2.2-3.1-1.8
					c-1.4,0.5-2,1.7-1.8,3.1c0.3,1.9,0.7,3.9,1,5.8c0.2,0.9,0.3,1.8,0.5,2.7c0.1,0.5,0.2,1,0.3,1.5s0,0.1,0,0.1c0,0.3,0,0.3,0.1-0.1
					c0.2-0.4,0.1-0.4,0-0.1c1.3-0.2,2.6-0.3,3.9-0.5c-0.3-0.3-0.6-0.6-0.9-0.9c-0.1-0.1-0.3-0.4-0.1-0.1c-0.1-0.2-0.3-0.4-0.4-0.6
					c-0.2-0.4-0.4-0.7-0.6-1.1c-0.1-0.2,0.1,0.3-0.1-0.1c-0.1-0.2-0.2-0.4-0.2-0.7c-0.6-1.6-0.9-3.4-1.1-5.1
					c-1.6,0.4-3.2,0.9-4.8,1.3c0.5,1.7,0.7,3,0.8,4.6c0,0.8,0,1.6,0,2.5c0,0.4,0,0.8-0.1,1.2c0,0.2,0,0.5-0.1,0.7
					c-0.1,0.5,0.1-0.6,0,0.3c1.5-0.2,3-0.4,4.6-0.6c-0.3-0.4-0.5-0.9-0.8-1.3c-0.1-0.2-0.2-0.5-0.3-0.7c0.2,0.4-0.1-0.3-0.1-0.3
					c-0.4-1-0.6-2-0.8-3.1c-0.1-0.7-0.2-1.6-0.3-2.7c0-1.1,0-2.2,0-3.3c0-1.2-1-2.3-2.2-2.5c-1.3-0.2-2.3,0.6-2.7,1.8
					c-1.1,2.7-1.3,5.6-0.9,8.5c0.1,1,0.3,2.1,0.1,3c-0.4,1.6-0.5,3.3,0.7,4.6c1.2,1.2,2.7,1.2,4.3,1.1c1.4,0,2.8-0.1,4.2-0.2
					c1.4,0,2.9-0.1,4.3-0.2c0.7,0,1.4-0.1,2.1-0.1C-601.8,40.2-601.5,40.2-601.3,40.2c0.4,0,0.4,0,0.2,0c0.2,0,0.4,0.1,0.5,0.1
					c0.4-1.6,0.9-3.2,1.3-4.8c-0.2-0.1-0.5-0.1-0.8-0.2c-1.3-0.3-2.8,0.4-3.1,1.8C-603.4,38.4-602.7,39.9-601.3,40.2L-601.3,40.2z"
					/>
			</g>
		</g>
		<g class="st1">
			<g>
				<path class="st4" d="M-610.4,14.2c-0.2,5.3,0.2,10.5,1.1,15.7c0.5,2.8,5,2.1,4.9-0.7c-0.2-5.6-0.5-11.2-0.7-16.9
					c-0.2-5.6-0.6-11.2-0.5-16.8c0.2-10.9,1.9-21.8,1.8-32.8c0-2.8,0-5.9-1.1-8.6c-1.1-2.6-3.5-4.5-6.4-4.6c-1,0-2.2,0.8-2.4,1.8
					c-0.3,1.5-0.5,3.1-0.8,4.6c-0.2,1.3,0.3,2.7,1.8,3.1c1.2,0.3,2.8-0.4,3.1-1.8c0.5-2.2,0.4-4.4-0.4-6.5c-0.5-1.2-1.4-2-2.7-1.8
					c-1.1,0.2-2.3,1.2-2.2,2.5c0.4,4,0.8,8,1.1,12c0.1,1.2,0.9,2.3,2.2,2.5c1.2,0.1,2.5-0.6,2.7-1.8c0.6-2.7,1-5.4,1.3-8.1
					c-1.6,0.2-3.3,0.4-4.9,0.7c0.6,3.4,0.7,7,0.1,10.4c1.5-0.2,3-0.4,4.6-0.6c-1.1-1.4-1.3-3-1.4-4.7c-0.1-2-0.2-4.1-0.7-6.1
					c-0.7-2.7-5-2.2-4.9,0.7c0.2,7,0.5,14,0.9,21c0.2,2.7,4.2,3.5,4.9,0.7c0.8-3.5,1.3-7,1.5-10.6c-1.7,0-3.3,0-5,0
					c0.3,4.3-1.9,8.4-1.4,12.7c1.6-0.2,3.3-0.4,4.9-0.7c-0.4-1.8-0.5-3.7-0.3-5.5c-1.6-0.2-3.3-0.4-4.9-0.7
					c-0.1,8.6,0,17.2-0.3,25.8c-0.2,4.3-0.5,8.5-1,12.8c-0.4,4.2-0.7,8.4-0.2,12.5c0.4,3.2,4.7,3.2,5,0c0.5-4.9,0.8-9.8,0.9-14.7
					c-1.7,0-3.3,0-5,0c0,5.1,0.3,10.1,0.9,15.1c0.2,1.3,1,2.5,2.5,2.5c1.4,0,2.5-1.1,2.5-2.5c0.1-3.7,0.3-7.5,0.4-11.2
					c0.1-1.7,0.4-3.7,0.1-5.3c-0.4-1.9-2-3.2-4-2.7c-3.1,0.8-1.8,5.6,1.3,4.8c0.1,0,0.2,0,0.2-0.1c-0.4,0-0.9,0-1.3,0
					c0.1,0,0.1,0,0.2,0.1c-0.4-0.2-0.7-0.4-1.1-0.6l-0.2-0.5c0,0,0,0.9,0,1c0,0.7,0,1.5-0.1,2.2c0,1.4-0.1,2.8-0.2,4.1
					c-0.1,2.8-0.2,5.5-0.3,8.3c1.7,0,3.3,0,5,0c-0.7-5-1-10-0.9-15.1c0-3.2-4.9-3.2-5,0c-0.1,4.9-0.4,9.8-0.9,14.7c1.7,0,3.3,0,5,0
					c-0.6-4.2-0.3-8.4,0.2-12.5c0.4-4.2,0.8-8.5,1-12.8c0.3-8.6,0.2-17.2,0.3-25.8c0-1.2-1-2.3-2.2-2.5c-1.1-0.1-2.6,0.5-2.7,1.8
					c-0.4,2.8-0.4,5.4,0.3,8.1c0.6,2.7,5.2,2.2,4.9-0.7c-0.5-4.3,1.8-8.4,1.4-12.7c-0.2-3.2-4.8-3.2-5,0c-0.1,3.1-0.6,6.2-1.3,9.3
					c1.6,0.2,3.3,0.4,4.9,0.7c-0.4-7-0.7-14-0.9-21c-1.6,0.2-3.3,0.4-4.9,0.7c1.1,4-0.1,8.5,2.6,12c0.6,0.8,1.4,1.4,2.5,1.2
					c0.9-0.1,1.9-0.8,2.1-1.8c0.7-4.4,0.7-8.7-0.1-13c-0.2-1.2-1.6-2-2.7-1.8c-1.3,0.2-2,1.2-2.2,2.5c-0.2,2.3-0.6,4.5-1.1,6.8
					c1.6,0.2,3.3,0.4,4.9,0.7c-0.4-4-0.8-8-1.1-12c-1.6,0.2-3.3,0.4-4.9,0.7c0.5,1.2,0.7,2.5,0.4,3.8c1.6,0.4,3.2,0.9,4.8,1.3
					c0.3-1.5,0.5-3.1,0.8-4.6c-0.8,0.6-1.6,1.2-2.4,1.8c1.5,0,2.1,2.1,2.3,3.4c0.3,2.4,0.2,4.9,0.2,7.2c0,5.1-0.5,10.2-0.9,15.3
					s-0.8,10.2-0.9,15.3c-0.1,5.2,0.2,10.4,0.5,15.5c0.3,5.9,0.5,11.9,0.8,17.8c1.6-0.2,3.3-0.4,4.9-0.7c-0.8-4.8-1.1-9.6-0.9-14.4
					C-605.2,11-610.2,11-610.4,14.2L-610.4,14.2z"/>
			</g>
		</g>
		<g class="st1">
			<g>
				<path class="st4" d="M-615.8-34.8c-0.1,2.2,0.1,4.4,0.2,6.5c0.1,2.3,0.1,4.6,0.1,6.9c0,4.7-0.2,9.4-0.3,14.1
					c-0.3,9.3-0.6,18.6,0,27.9c0.1,1.4,1.1,2.5,2.5,2.5c1.3,0,2.6-1.1,2.5-2.5c-0.7-9.3-0.3-18.6,0-27.9c0.2-4.6,0.3-9.2,0.3-13.9
					c0-2.3,0-4.6-0.1-6.9c-0.1-2.2-0.3-4.5-0.2-6.8C-610.6-38-615.6-38-615.8-34.8L-615.8-34.8z"/>
			</g>
		</g>
	</g>
	<g id="maybe1_copy" class="st0">
		<path class="st1" d="M-605.7-105c2.7,2.7,4.2,4.8,2.9,7.2c-0.9,1.6-6,7.5-8.6,10.4c-1.6,2-3.4,2.9-4.8,2.1c-1.4-0.8-1.3-1.9-1.5-6
			c0-3.3-1.2-9.3-10.4-14.3c-8.3-4.6-17.3-3.5-22.1,5.2c-3.1,5.7-3.7,12-2.9,18.8c0.7,6,2.5,13.3,5,23.2c2.3,8.9,5.3,20.2,4.6,29.2
			c-0.3,5.8-1.1,10.1-5.2,17.8c-9.8,17.8-34.3,23.5-64,7.2c-6.1-3.3-11.1-7.1-12.5-8.9c-1.2-1.7-1.3-3.8-0.7-4.9
			c2-3.6,8.7-10.5,11.3-13c1.7-1.6,3.1-2.2,4.7-1.3c1.6,0.9,1,2.4,0.8,4.4c-0.6,3.6-2.2,11.6,12.1,19.4c8.9,4.9,23.1,4.2,29.1-6.8
			c2.1-3.8,3-7.9,3-12.2c0.1-9.8-3-19-5.8-29c-3.2-11.9-5.2-20.8-5-29.4c0.3-6.8,1.7-11.8,5-17.9c11.1-20.2,35.4-19.2,52.4-9.8
			C-611.4-109.9-607.5-107-605.7-105z M-721.8-17.5c-1,1.8,0.5,3.4,1.7,4.6c1.2,1.1,5.9,4.2,8.7,5.8c23,12.6,47.9,12.4,58.8-7.4
			c3.1-5.7,4-11.6,4-17.4c0.1-10.3-2.8-19.9-4.6-27.3c-2.2-8.6-4.2-17.8-4.9-23.3c-1-8.2,0.4-14.7,3.3-20c5.5-10,16.5-12.2,28.1-5.9
			c11,6,13.1,12.2,12.9,17.4l0.2,0.1c2.6-2.9,5.9-6.5,6.7-7.9c1-1.9-0.5-3.8-2-5.4s-4.5-3.9-10.6-7.2c-15.6-8.6-37.8-8.7-47.1,8.2
			c-3.1,5.7-4.9,10.9-4.9,18.6c0.1,8.9,2.3,18.8,4.6,27.3c2.4,9.2,6.1,18.8,6.1,27.9c-0.1,5.1-0.8,10.1-3.4,14.9
			c-7.6,13.8-23.8,13.6-33.6,8.2c-14.2-7.8-16.9-15-15.8-20.2l-0.2-0.1C-716.4-24.5-720.8-19.5-721.8-17.5z"/>
		<path class="st1" d="M-600.8-23c0,19.5,0,37.5,1.4,51c0.5,5.2,7.1,6,11.5,6c11.8,0,17.8-1,23.6-2.4c3.9-1.1,6.5-2.9,8.1-4.3
			c0.5-0.4,1.2-1.6,2.5-1.6c1.2,0,1.4,0.4,1.4,0.9c0,0.7-0.7,2.6-1.2,3.7c-1.4,3.7-3.2,7.6-4.6,9.4c-1.2,1.4-4.2,2.6-7.7,2.6
			c-2.8,0-11.6-0.4-21.3-0.4c-10,0-28.7,0.4-32,0.4c-1.2,0-2.3-0.4-2.3-1.7c0-3.2,3.5-28.6,3.5-65.2c0-7,0.2-17.2-1.2-24.7
			c-0.9-4.4-2.3-6.9-4.9-8.2c-2.3-1-3.7-0.7-3.7-1.9s1.4-1.1,3.2-1.3c3.9-0.6,9-1.4,15.3-2.9c4.9-1,7.5-3.2,9.5-3.2
			c0.9,0,1.4,0.7,1.4,1.4s-1.4,9.3-2.1,16.4C-600.6-40.6-600.8-32.2-600.8-23z M-571.5,35.2c-4.9,0.7-12.7,1-18.3,1
			c-7.4,0-14.5-1.7-15.2-8.3c-0.5-6.1-1.2-32.2-1.2-50.9c0-8.1,0.7-20.5,1.2-27c0.7-5.9,1.6-11.9,1.6-12.3c0-0.6-0.5-1.1-0.9-1.1
			c-1.2,0-0.5,1.4-4.7,2.3c-3.5,0.7-7.4,1.4-11.6,2.2v0.1c1.2,0.1,2.8,1.6,3.7,3.2c1.4,2.6,1.6,4.9,1.8,6.4c0.9,6.9,0.9,15.9,0.9,25
			c0,27.6-2.5,59.6-2.5,62.6c0,1.1,0.9,1.6,2.1,1.6c5.6,0,18.5-0.4,27.1-0.4c9.7,0,18.3,0.3,20.4,0.3c2.3,0,4.9-0.9,5.6-2.2
			c1.2-1.4,3-4.2,3.5-5.7h-0.2C-560.8,33.2-565.2,34.2-571.5,35.2z"/>
		<g class="st1">
			<path d="M-613.2,140.4c2.8,2.6,4.4,4.7,3.2,7.1c-0.8,1.6-5.7,7.6-8.3,10.6c-1.6,2.1-3.3,3-4.8,2.2c-1.4-0.7-1.4-1.9-1.7-5.9
				c-0.1-3.3-1.5-9.3-10.8-14c-8.5-4.3-17.5-3-22,5.9c-3,5.8-3.3,12.1-2.3,18.9c0.9,5.9,2.9,13.2,5.7,23c2.5,8.8,5.9,20.1,5.5,29
				c-0.1,5.8-0.8,10.2-4.7,17.9c-9.2,18.1-33.6,24.5-63.7,9.2c-6.2-3.2-11.3-6.8-12.8-8.6c-1.2-1.6-1.5-3.8-0.9-4.9
				c1.9-3.7,8.3-10.8,10.9-13.3c1.6-1.6,3-2.3,4.7-1.5s1.1,2.4,0.9,4.3c-0.5,3.6-1.8,11.7,12.7,19c9.1,4.6,23.2,3.5,28.8-7.6
				c2-3.9,2.8-7.9,2.6-12.3c-0.2-9.8-3.6-18.9-6.7-28.8c-3.6-11.8-5.9-20.7-5.9-29.2c0.1-6.9,1.4-11.9,4.5-18
				c10.4-20.5,34.8-20.3,52.1-11.4C-619,135.6-615,138.4-613.2,140.4z M-726.6,231.3c-0.9,1.8,0.6,3.4,1.8,4.6
				c1.3,1.1,6,4.1,8.9,5.5c23.3,11.9,48.2,11,58.5-9.2c3-5.8,3.7-11.8,3.5-17.5c-0.2-10.3-3.4-19.8-5.4-27.1
				c-2.4-8.5-4.8-17.7-5.6-23.2c-1.3-8.2-0.1-14.7,2.7-20.1c5.2-10.2,16.1-12.7,27.9-6.7c11.2,5.7,13.5,11.8,13.4,17l0.2,0.1
				c2.5-3,5.7-6.6,6.5-8.1c1-1.9-0.7-3.8-2.2-5.4c-1.5-1.6-4.6-3.8-10.8-6.9c-15.9-8.1-38-7.6-46.8,9.7c-3,5.8-4.6,11.1-4.3,18.7
				c0.4,8.9,2.9,18.8,5.4,27.1c2.7,9.1,6.6,18.6,6.9,27.7c0,5.1-0.5,10.1-2.9,15c-7.2,14-23.4,14.3-33.3,9.2
				c-14.5-7.4-17.3-14.5-16.5-19.8l-0.2-0.1C-721.4,224.2-725.6,229.4-726.6,231.3z"/>
			<path d="M-605.3,220.2c0,19.4,0,37.5,1.4,51.1c0.5,5.1,7.1,6,11.5,6c11.8,0,17.8-1,23.6-2.4c3.9-1.1,6.5-2.9,8.1-4.3
				c0.5-0.4,1.2-1.6,2.5-1.6c1.2,0,1.4,0.4,1.4,0.9c0,0.7-0.7,2.6-1.2,3.7c-1.4,3.7-3.2,7.6-4.6,9.4c-1.2,1.4-4.2,2.6-7.7,2.6
				c-2.8,0-11.6-0.4-21.3-0.4c-10,0-28.7,0.4-32,0.4c-1.2,0-2.3-0.4-2.3-1.7c0-3.1,3.5-28.6,3.5-65.2c0-7,0.2-17.2-1.2-24.7
				c-0.9-4.4-2.3-6.9-4.9-8.1c-2.3-1-3.7-0.7-3.7-1.9s1.4-1.1,3.2-1.3c3.9-0.6,9-1.4,15.3-2.9c4.9-1,7.5-3.1,9.5-3.1
				c0.9,0,1.4,0.7,1.4,1.4s-1.4,9.3-2.1,16.4C-605,202.6-605.3,211-605.3,220.2z M-575.9,278.4c-4.9,0.7-12.7,1-18.3,1
				c-7.4,0-14.5-1.7-15.2-8.3c-0.5-6.1-1.2-32.2-1.2-50.9c0-8.1,0.7-20.4,1.2-27c0.7-5.9,1.6-11.9,1.6-12.3c0-0.6-0.5-1.1-0.9-1.1
				c-1.2,0-0.5,1.4-4.7,2.3c-3.5,0.7-7.4,1.4-11.6,2.1v0.1c1.2,0.1,2.8,1.6,3.7,3.1c1.4,2.6,1.6,4.9,1.8,6.4
				c0.9,6.9,0.9,15.9,0.9,25c0,27.6-2.5,59.6-2.5,62.6c0,1.1,0.9,1.6,2.1,1.6c5.6,0,18.5-0.4,27.1-0.4c9.7,0,18.3,0.3,20.4,0.3
				c2.3,0,4.9-0.9,5.6-2.1c1.2-1.4,3-4.1,3.5-5.7h-0.2C-565.2,276.4-569.7,277.4-575.9,278.4z"/>
		</g>
		<rect x="-750.3" y="121" class="st3" width="207.3" height="200"/>
	</g>
	<g>
		<path class="st5" d="M72.2,79.2L72.2,79.2c0.1-5.4-0.9-10.4-2.3-15.2C71.3,68.8,72.3,73.8,72.2,79.2z"/>
		<path class="st5" d="M76.9,59.4C76.9,59.3,76.9,59.3,76.9,59.4C76.9,59.3,76.9,59.3,76.9,59.4L76.9,59.4L76.9,59.4z"/>
		<path class="st5" d="M81.7,65c-1,0.7-1.8,1.7-2.3,2.7C79.9,66.6,80.7,65.7,81.7,65c1.3-1,2.9-1.5,4.7-1.5c4.4,0,7.9,3.5,7.9,7.9
			l0,0c0-4.4-3.5-7.9-7.9-7.9C84.6,63.4,83,64,81.7,65c-2.2-1-4-2.6-4.6-5.1c0-0.2-0.1-0.4-0.1-0.6l0,0c0,0.2,0.1,0.4,0.1,0.5
			C77.7,62.3,79.5,64,81.7,65z"/>
		<path class="st5" d="M180,1c-0.8-0.4-1.6-0.7-2.4-1h-0.1C178.4,0.3,179.2,0.7,180,1L180,1z"/>
		<path class="st5" d="M86.3,91.8c-0.4,0-0.8,0-1.2-0.1C85.5,91.8,85.9,91.8,86.3,91.8c2.5,0,4.7-1.2,6.2-3
			C91.1,90.7,88.8,91.8,86.3,91.8z"/>
		<path class="st5" d="M31.5,106.9c2.6,1.3,5.2,2,7.7,2C36.7,108.9,34.1,108.3,31.5,106.9z"/>
		<polygon class="st5" points="99.1,28.7 99.1,28.7 99,28.8 		"/>
		<path class="st5" d="M72.2,79.4c-0.1,2.7-0.4,5.5-1.1,8.5C71.8,85,72.1,82.1,72.2,79.4z"/>
		<path class="st5" d="M76.9,67.2c-2,3.9-3.5,7.9-4.7,12C73.4,75.1,74.9,71.1,76.9,67.2z"/>
		<path class="st5" d="M85.1,91.7c-0.8-0.1-1.5-0.4-2.2-0.7C83.6,91.4,84.4,91.6,85.1,91.7z"/>
		<path class="st5" d="M76.6,65.7c-1.8-5-2.7-9.8-2.6-14.3C74,55.9,74.8,60.7,76.6,65.7L76.6,65.7z"/>
		<path class="st5" d="M146.4,169.8c11.4,2.7,22.7-3.3,25.1-13.4c0,0.1-0.1,0.2-0.1,0.3C168.8,166.6,157.7,172.5,146.4,169.8z"/>
		<path class="st5" d="M152.1,114.2c-7.7,0-13.9-6.2-13.9-13.9v-7.9l0,0v7.9C138.2,108,144.5,114.2,152.1,114.2
			c4.5,0,8.4-2.1,11-5.4l0,0C160.5,112.1,156.6,114.2,152.1,114.2z"/>
		<path class="st5" d="M147.3,165.8c1,0.2,2.1,0.4,3.1,0.4C149.4,166.1,148.4,166,147.3,165.8z"/>
		<path class="st5" d="M158.1,103.3L158.1,103.3c0-3.1,2.6-5.5,5.7-5.5c0.8,0,1.5,0.2,2.2,0.4l0,0c-0.7-0.3-1.5-0.4-2.2-0.4
			C160.7,97.8,158.1,100.3,158.1,103.3z"/>
		<path class="st5" d="M143.8,81.3c-1.6,1.2-2.9,2.7-3.9,4.5c-1.7-2.5-2.8-5.4-2.9-8.5c0.1,3.1,1.1,6,2.9,8.5l0,0
			C140.9,84,142.2,82.5,143.8,81.3z"/>
		<path class="st5" d="M137.6,72.9L137.6,72.9L137.6,72.9C137.6,73,137.6,73,137.6,72.9C137.7,72.9,137.6,72.9,137.6,72.9z"/>
		<path class="st5" d="M97,180c-1.8-1.4-3.4-2.9-5-4.5C93.6,177.1,95.2,178.6,97,180H30.6c5.7-3.2,11.1-6.3,11.7-15.3
			c0.7-11.1-20.2-30.1-7.1-47.1c12.4,2.4,24.5-4.7,32-19.4c0.7-1.3,1.2-2.5,1.7-3.8c0.1,0.2,0.2,0.3,0.3,0.5l0,0
			c-0.1-0.2-0.2-0.4-0.3-0.5c0.2-0.4,0.3-0.8,0.5-1.3l0,0c-0.2,0.4-0.3,0.9-0.5,1.3c-0.5,1.2-1.1,2.5-1.7,3.8
			c-7.5,14.7-19.7,21.8-32,19.4c-13.1,17,7.8,36,7.1,47.1c-0.6,9-6,12.2-11.7,15.3H0v53.3h180V180H97z"/>
		<path class="st5" d="M35.2,117.6c-2.5-0.5-5-1.3-7.5-2.6C30.2,116.2,32.7,117.1,35.2,117.6z"/>
		<path class="st5" d="M47.8,27.7C36.9,55.9,65.6,74,53.3,98.2C65.6,74,36.9,55.9,47.8,27.7z"/>
		<path class="st6" d="M69,94.4c0.1,0.2,0.2,0.4,0.3,0.5c0.1-0.6,0.1-1.2,0.2-1.8C69.3,93.5,69.2,94,69,94.4z"/>
		<path class="st6" d="M180,0h-2.4c0.8,0.3,1.6,0.7,2.4,1V0z"/>
		<path class="st6" d="M42.3,164.7c0.7-11.1-20.2-30.1-7.1-47.1c-2.5-0.5-5-1.3-7.5-2.6c-9.9-5-14.6-13.6-15.5-24.6l7.5-4.6l1.1,0.6
			c0.3,9.5,3.3,16.9,10.7,20.7c2.6,1.3,5.2,2,7.7,2c5.5-0.1,10.5-3.6,14.1-10.7C65.6,74,36.9,55.9,47.8,27.7
			c0.2-0.4,0.4-0.9,0.5-1.4c0.4-0.9,0.8-1.9,1.3-2.8C57.7,7.7,72,1.7,85.8,8.7c1.9,1,3.6,2.1,5.2,3.5l0,0c2-5,4.4-9,8.2-12.2H0v180
			h30.6C36.3,176.9,41.7,173.7,42.3,164.7z"/>
		<path class="st7" d="M68.8,102.3c0.1-2.3,0.3-4.8,0.5-7.4l0,0c-0.1-0.2-0.2-0.4-0.3-0.5c-0.5,1.2-1.1,2.5-1.7,3.8
			c-7.5,14.7-19.7,21.8-32,19.4c-13.1,17,7.8,36,7.1,47.1c-0.6,9-6,12.2-11.7,15.3H97c-1.8-1.4-3.4-2.9-5-4.5
			c-2.5-2.6-4.8-5.3-6.7-8.1C65.2,138.3,68.4,110.6,68.8,102.3z"/>
		<path class="st7" d="M87.7,21.8c-1.2-1.6-3.7-4-5.9-5.2c-7.2-3.6-14.3-1.8-18.7,6.8c-6.6,13,2.2,25.5,6.7,40.6
			c1.4,4.8,2.4,9.8,2.3,15.2c1.1-4.1,2.6-8.1,4.7-12l0,0c-0.1-0.5-0.2-1-0.2-1.5l0,0c-1.8-5-2.7-9.8-2.6-14.4
			c0.1-11.6,5.7-21.6,14.2-28.7c0,0-0.1-0.1-0.1-0.2C88,22.2,87.9,22,87.7,21.8z"/>
		<path class="st8" d="M119.8,48.6c-13.5,11.1-24.6-0.8-29.1-14.2c-2.5-5.6-1.7-10.3-2.5-11.8l0,0C79.7,29.8,74.1,39.7,74,51.3
			c0,4.5,0.8,9.3,2.6,14.3c-0.2-2-0.2-4.1,0.3-6.3v-0.1l0,0l0,0l0,0c0,0,0,0,0-0.1l0,0l0,0c0,0.2,0.1,0.4,0.1,0.6
			c0.7,2.5,2.4,4.1,4.6,5.1c1.3-1,2.9-1.5,4.7-1.5c4.4,0,7.9,3.5,7.9,7.9l0,0v10.1c-0.5-0.2-1-0.3-1.5-0.3c-0.8,0-1.6,0.2-2.2,0.7
			c-0.4,0.3-0.8,0.6-1.1,1.1c-0.4,0.6-0.7,1.4-0.7,2.2c0,2.1,1.7,3.7,3.8,3.9c-1.5,1.8-3.7,3-6.2,3c-0.4,0-0.8,0-1.2-0.1
			c-0.8-0.1-1.5-0.4-2.2-0.7c-0.3-0.2-0.7-0.4-1-0.6c-0.6-0.4-1.2-0.9-1.7-1.5c-0.6-0.8-1.1-1.7-1.4-2.7c-0.2-0.7-0.4-1.5-0.4-2.3
			V71.9c-0.7-1.4-1.3-3-1.6-4.7c-2,3.9-3.5,7.9-4.7,12l0,0l0,0c0,0.1,0,0.1,0,0.2c-0.1,2.7-0.4,5.5-1.1,8.5
			c-0.4,1.7-0.9,3.4-1.6,5.2l0,0l0,0c-0.1,0.6-0.1,1.2-0.2,1.8l0,0l0,0c-0.3,2.6-0.4,5.1-0.5,7.4c-0.4,8.3-3.5,35.9,16.6,65.1
			c1.9,2.7,4.1,5.5,6.7,8.1c1.6,1.6,3.2,3.1,5,4.5h83V81.8C166.2,59.8,144.8,28,119.8,48.6z M143.7,156.4H99V67.5h14.5v82.2h32.3
			L143.7,156.4z M168.7,152.6c1.6,0,2.9,1.3,2.9,2.9c0,0.3-0.1,0.6-0.1,0.9c-2.4,10.1-13.7,16.1-25.1,13.4l1-4.1
			c1,0.2,2.1,0.4,3.1,0.4c7.1,0.3,13.6-4.1,15.3-10.8C165.9,153.9,167.1,152.6,168.7,152.6z M166.1,92.4L166.1,92.4v5.8l0,0
			c-0.7-0.3-1.4-0.4-2.2-0.4c-3.2,0-5.7,2.5-5.7,5.5c0,2.8,2.2,5.2,5,5.5l0,0l0,0c-2.5,3.3-6.5,5.4-11,5.4
			c-7.7,0-13.9-6.2-13.9-13.9v-7.9l0,0l0,0c0-2.4,0.6-4.7,1.7-6.6c-1.7-2.5-2.8-5.4-2.9-8.5c0-1.4,0.1-2.9,0.6-4.4
			c0,0.1,0,0.1,0,0.2V73l0,0l0,0c0.1,0.4,0.2,0.8,0.3,1.2c0,0.1,0,0.1,0,0.2c0.1,0.3,0.2,0.6,0.3,0.9c0.1,0.1,0.1,0.3,0.2,0.4
			c1.1,2.5,3,4.3,5.3,5.7l0,0l0,0c2.3-1.7,5.2-2.8,8.3-2.8C159.8,78.5,166.1,84.7,166.1,92.4z"/>
		<path class="st7" d="M91.1,12.2c4.3,3.7,7.5,8.9,8,16.5l0,0l0,0L99,28.8l-8.1,6.1c-0.1-0.2-0.1-0.3-0.2-0.5
			c4.4,13.4,15.5,25.3,29.1,14.2c25-20.6,46.4,11.2,60.2,33.2V1.1c-0.8-0.4-1.6-0.7-2.4-1.1H99.3C95.5,3.2,93.1,7.2,91.1,12.2z"/>
		<path class="st9" d="M171.4,156.7c-0.4,1-1.5,1.8-2.7,1.8c-1.6,0-2.9-1.3-2.9-2.9v-0.1c-1.8,6.7-8.2,11.1-15.3,10.8
			c-1,0-2.1-0.2-3.1-0.4l-1,4.1C157.7,172.5,168.8,166.6,171.4,156.7z"/>
		<path class="st10" d="M143.8,81.3L143.8,81.3c-2.3-1.4-4.2-3.2-5.3-5.7c-0.1-0.1-0.1-0.3-0.2-0.4c-0.1-0.3-0.2-0.6-0.3-0.9
			c0-0.1,0-0.1,0-0.2c-0.1-0.4-0.2-0.8-0.3-1.2l0,0V73l0,0c0-0.1,0-0.1,0-0.2c-0.4,1.5-0.6,3-0.6,4.4c0.1,3.1,1.1,6,2.9,8.5
			C140.9,84,142.2,82.5,143.8,81.3z"/>
		<path class="st10" d="M76.6,65.7c0.1,0.5,0.1,1,0.2,1.5l0,0c0.3,1.7,0.9,3.2,1.6,4.7v-0.6c0-1.3,0.3-2.5,0.9-3.6s1.4-2,2.3-2.7
			c-2.2-1-4-2.6-4.6-5.1c0-0.2-0.1-0.4-0.1-0.5l0,0c0,0,0,0,0,0.1l0,0l0,0l0,0v0.1C76.4,61.6,76.4,63.7,76.6,65.7L76.6,65.7
			L76.6,65.7z"/>
		<path class="st11" d="M143.8,81.3L143.8,81.3c-1.6,1.2-2.9,2.7-3.9,4.5l0,0c-1.1,2-1.7,4.2-1.7,6.6l0,0v7.9
			c0,7.7,6.2,13.9,13.9,13.9c4.5,0,8.4-2.1,11-5.4l0,0c-2.8-0.3-5-2.7-5-5.5l0,0c0-3.1,2.6-5.5,5.7-5.5c0.8,0,1.5,0.2,2.2,0.4v-5.8
			l0,0c0-7.7-6.2-13.9-13.9-13.9C149,78.5,146.1,79.5,143.8,81.3z"/>
		<path class="st11" d="M86.4,63.4c-1.8,0-3.4,0.6-4.7,1.5c-1,0.7-1.8,1.7-2.3,2.7c-0.6,1.1-0.9,2.3-0.9,3.6v0.6V84
			c0,0.8,0.1,1.6,0.4,2.3c0.3,1,0.8,1.9,1.4,2.7c0.5,0.6,1,1.1,1.7,1.5c0.3,0.2,0.6,0.4,1,0.6c0.7,0.3,1.4,0.6,2.2,0.7
			c0.4,0.1,0.8,0.1,1.2,0.1c2.5,0,4.7-1.2,6.2-3c-2.1-0.1-3.8-1.8-3.8-3.9c0-0.8,0.3-1.6,0.7-2.2c0.3-0.4,0.7-0.8,1.1-1.1
			c0.6-0.4,1.4-0.7,2.2-0.7c0.5,0,1,0.1,1.5,0.3v-10C94.2,67,90.7,63.4,86.4,63.4z"/>
		<path class="st12" d="M71.1,87.9c0.7-2.9,1-5.7,1.1-8.5c0-0.1,0-0.1,0-0.2l0,0c0.1-5.4-0.9-10.4-2.3-15.2
			c-4.5-15-13.4-27.6-6.8-40.5c4.4-8.6,11.5-10.5,18.7-6.8c2.2,1.1,4.7,3.5,5.9,5.2c0.1,0.2,0.3,0.4,0.4,0.6c0,0,0.1,0.1,0.1,0.2
			l0,0c0.7,1.5,0,6.2,2.5,11.8c0.1,0.2,0.1,0.3,0.2,0.5l8.1-6.1l0.1-0.1l0,0c-0.6-7.5-3.7-12.8-8-16.5l0,0c-1.6-1.3-3.4-2.5-5.2-3.5
			c-13.8-7-28.2-1-36.2,14.8c-0.5,1-0.9,1.9-1.3,2.8c-0.2,0.5-0.4,0.9-0.5,1.4c-11,28.1,17.7,46.2,5.4,70.4
			c-3.7,7.2-8.6,10.6-14.1,10.7c-2.5,0-5.1-0.6-7.7-2c-7.4-3.8-10.5-11.1-10.7-20.7l-1.1-0.6l-7.5,4.6c0.9,11,5.7,19.6,15.5,24.6
			c2.5,1.3,5,2.1,7.5,2.6c12.4,2.4,24.5-4.7,32-19.4c0.6-1.3,1.2-2.5,1.7-3.8c0.2-0.4,0.3-0.9,0.5-1.3l0,0
			C70.2,91.3,70.7,89.6,71.1,87.9z"/>
		<polygon class="st12" points="113.5,67.5 99,67.5 99,156.4 143.7,156.4 145.8,149.7 113.5,149.7 		"/>
		<path class="st9" d="M165.7,155.9c0,1.6,1.3,2.9,2.9,2.9c1.2,0,2.2-0.7,2.7-1.8c0-0.1,0.1-0.2,0.1-0.3c0.1-0.3,0.1-0.6,0.1-0.9
			c0-1.6-1.3-2.9-2.9-2.9c-1.6,0-2.8,1.2-2.9,2.8C165.7,155.9,165.7,155.9,165.7,155.9z"/>
	</g>
</g>
</svg>
