<?xml version="1.0" encoding="utf-8"?>
<!-- Generator: Adobe Illustrator 26.2.1, SVG Export Plug-In . SVG Version: 6.00 Build 0)  -->
<svg version="1.1" id="Layer_1" xmlns="http://www.w3.org/2000/svg" xmlns:xlink="http://www.w3.org/1999/xlink" x="0px" y="0px"
	 viewBox="0 0 264 280" style="enable-background:new 0 0 264 280;" xml:space="preserve">
<style type="text/css">
	.st0{fill-rule:evenodd;clip-rule:evenodd;fill:#E6E6E6;}
	.st1{fill-rule:evenodd;clip-rule:evenodd;fill:#65C9FF;}
	.st2{fill-rule:evenodd;clip-rule:evenodd;fill:#D0C6AC;}
	.st3{fill-rule:evenodd;clip-rule:evenodd;fill:#EDB98A;}
	.st4{fill-rule:evenodd;clip-rule:evenodd;fill-opacity:0.1;}
	.st5{fill-rule:evenodd;clip-rule:evenodd;fill:#25557C;}
	.st6{fill-rule:evenodd;clip-rule:evenodd;fill-opacity:0.7;}
	.st7{fill-rule:evenodd;clip-rule:evenodd;fill:#FFFFFF;}
	.st8{fill-rule:evenodd;clip-rule:evenodd;fill:#FF4F6D;}
	.st9{fill-rule:evenodd;clip-rule:evenodd;fill-opacity:0.16;}
	.st10{fill-rule:evenodd;clip-rule:evenodd;fill-opacity:0.6;}
	.st11{fill-opacity:0.6;}
	.st12{fill-rule:evenodd;clip-rule:evenodd;fill:#314756;}
	.st13{fill-rule:evenodd;clip-rule:evenodd;fill:#2C1B18;}
	.st14{fill-rule:evenodd;clip-rule:evenodd;fill:#FFFFFF;fill-opacity:0.1;}
</style>
<desc>Created with getavataaars.com</desc>
<g id="Avataaar_00000020366854219666299620000017888468917015750819_">
	<g id="Avataaar_x2F_Circle" transform="translate(-825.000000, -1100.000000)">
		<g transform="translate(825.000000, 1100.000000)">
			<g id="Circle" transform="translate(12.000000, 40.000000)">
				<g id="Circle-Background">
					<circle id="react-path-1_00000082364599659092989370000010767073148398524813_" class="st0" cx="120" cy="120" r="120"/>
				</g>
				<g id="Color_x2F_Palette_x2F_Blue-01">
					<rect id="_xD83D__xDD8D_Color" class="st1" width="240" height="240"/>
				</g>
			</g>
			<g id="Mask">
			</g>
			<g id="Avataaar">
				<g id="Body" transform="translate(32.000000, 36.000000)">
					<g>
						<path id="react-path-3_00000060738539016607309920000001800634026485003409_" class="st2" d="M124,144.6V163h4l0,0
							c39.8,0,72,32.2,72,72v9H0v-9c0-39.8,32.2-72,72-72l0,0h4v-18.4c-17.2-8.2-29.6-24.9-31.7-44.7C38.5,99.1,34,94.1,34,88V74
							c0-5.9,4.3-10.9,10-11.8V56l0,0c0-30.9,25.1-56,56-56l0,0l0,0c30.9,0,56,25.1,56,56v6.2c5.7,1,10,5.9,10,11.8v14
							c0,6.1-4.5,11.1-10.3,11.9C153.6,119.7,141.2,136.4,124,144.6z"/>
					</g>
					<g id="Skin_x2F__xD83D__xDC76__xD83C__xDFFD_-03-Brown">
						<g id="Color" transform="translate(0.000000, 0.000000)">
							<rect class="st3" width="264" height="280"/>
						</g>
					</g>
					<path id="Neck-Shadow" class="st4" d="M156,79v23c0,30.9-25.1,56-56,56s-56-25.1-56-56V79v15c0,30.9,25.1,56,56,56
						s56-25.1,56-56V79z"/>
				</g>
				<g id="Clothing_x2F_Shirt-V-Neck" transform="translate(0.000000, 170.000000)">
					<g id="Clothes">
						<path id="react-path-343_00000044140468882231880980000005732667704232785796_" class="st0" d="M171.3,29.9
							C205.7,35.3,232,65.1,232,101v8.9H32V101c0-35.9,26.3-65.7,60.7-71.1c0.9,5.1,3.4,9.9,7.6,13.6l0,0l29.1,26.2
							c1.5,1.4,3.8,1.4,5.4,0l0,0l29.1-26.2c0.4-0.4,0.8-0.8,1.2-1.2C168.4,38.8,170.5,34.5,171.3,29.9z"/>
					</g>
					<g id="Color_x2F_Palette_x2F_Gray-01">
						<rect id="_xD83D__xDD8D_Color_00000052805914370796788570000010489894465054447025_" class="st5" width="264" height="110"/>
					</g>
				</g>
				<g id="Face" transform="translate(76.000000, 82.000000)">
					<g id="Mouth_x2F_Smile" transform="translate(2.000000, 52.000000)">
						<g id="Mouth">
							<path id="react-path-305_00000037672072870934988870000014231615627538052787_" class="st6" d="M35.1,15.1
								C36.2,24.6,44.2,32,54,32s17.9-7.4,18.9-17c0.1-0.8-0.8-2-1.8-2c-14.9,0-26.3,0-34,0C36,13,35,14.2,35.1,15.1z"/>
						</g>
						<path id="Teeth" class="st7" d="M44,2h21c2.8,0,5,2.2,5,5v6c0,2.8-2.2,5-5,5H44c-2.8,0-5-2.2-5-5V7C39,4.2,41.2,2,44,2z"/>
						<g id="Tongue">
							<g transform="translate(38.000000, 24.000000)">
								<circle class="st8" cx="11" cy="11" r="11"/>
								<circle class="st8" cx="21" cy="11" r="11"/>
							</g>
						</g>
					</g>
					<g id="Nose_x2F_Default" transform="translate(28.000000, 40.000000)">
						<path id="Nose" class="st9" d="M16,8c0,4.4,5.4,8,12,8l0,0c6.6,0,12-3.6,12-8"/>
					</g>
					<g id="Eyes_x2F_Side-_xD83D__xDE12_" transform="translate(0.000000, 8.000000)">
						<path id="Eye" class="st10" d="M27.2,20.3c-0.8,1-1.2,2.3-1.2,3.7c0,3.3,2.7,6,6,6s6-2.7,6-6c0-0.3,0-0.6-0.1-0.9
							c0-0.2,0-0.5-0.1-0.7c0-0.1-0.1-0.2-0.1-0.4c-0.3-1-0.9-1.8-1.6-2.5c-2.1-2.2-5.5-3.6-9-3.6c-4.8,0-9,2.6-10.8,6.4
							c-0.5,1.1,0.4,1.9,1.3,1.1c2.4-2,5.8-3.2,9.6-3.2C27.1,20.3,27.2,20.3,27.2,20.3z"/>
						<path id="Eye_00000101792638867752892330000014866581354055744436_" class="st10" d="M85.2,20.3c-0.8,1-1.2,2.3-1.2,3.7
							c0,3.3,2.7,6,6,6s6-2.7,6-6c0-0.3,0-0.6-0.1-0.9c0-0.2,0-0.5-0.1-0.7c0-0.1-0.1-0.2-0.1-0.4c-0.3-1-0.9-1.8-1.6-2.5
							c-2.1-2.2-5.5-3.6-9-3.6c-4.8,0-9,2.6-10.8,6.4c-0.5,1.1,0.4,1.9,1.3,1.1c2.4-2,5.8-3.2,9.6-3.2
							C85.1,20.3,85.2,20.3,85.2,20.3z"/>
					</g>
					<g id="Eyebrow_x2F_Outline_x2F_Up-Down">
						<path id="Eyebrow" class="st11" d="M15.6,14.2c4.5-6.3,14-9.5,23.8-6.4c1.1,0.3,2.2-0.2,2.5-1.3S41.6,4.3,40.6,4
							c-11.4-3.7-22.7,0.1-28.2,7.9c-0.6,0.9-0.4,2.1,0.5,2.8C13.7,15.3,15,15.1,15.6,14.2z"/>
						<path id="right-eyebrow" class="st11" d="M96.4,21.2c-3.9-5.5-14.6-8.6-23.9-6.3c-1.1,0.3-2.2-0.4-2.4-1.5
							c-0.3-1.1,0.4-2.2,1.5-2.4c10.7-2.6,23.2,0.9,28.1,7.9c0.6,0.9,0.4,2.1-0.5,2.8C98.3,22.3,97,22.1,96.4,21.2z"/>
					</g>
				</g>
				<g id="Top">
					<g id="Mask_00000013157234909785522630000013936844209783857280_">
					</g>
					<g id="Top_x2F_Long-Hair_x2F_Big-Hair">
						<g transform="translate(-1.000000, 0.000000)">
							<g id="Hair" transform="translate(16.000000, 13.000000)">
								<g>
									<path id="react-path-173_00000177456368667598805890000002362182697364568203_" class="st12" d="M222.4,182.8
										c-5.4,5.7-10.7,9.3-10.6,15.2c0.3,11.9,43.6,47.1,5.2,69H16c-38.4-21.9,4.9-57.1,5.2-69c0.2-5.9-5.2-9.5-10.6-15.2
										S-0.1,169.3,0,155c0.9-29,31.4-26.4,31.2-46c0.2-19-11.4-26.8,0-63C42.8,9.5,72.9,0.8,116,0l0,0c0.2,0,0.3,0,0.5,0
										s0.3,0,0.5,0l0,0c43.1,0.8,73.2,9.5,84.8,46c11.4,36.2-0.2,44,0,63c-0.2,19.6,30.3,17,31.2,46
										C233.1,169.3,227.8,177.1,222.4,182.8z M182.9,95.3c-21.5-11.6-40-28.2-52-47c-18.1,25.6-54.3,30.2-79.6,46.4
										C51.1,95.4,51,96.2,51,97v13c0,6,4.4,11,10.2,11.9c1.7,20.2,14.3,37.4,31.8,45.7V186h-4l0,0c-39.8,0-72,32.2-72,72v9h200
										v-9c0-39.8-32.2-72-72-72h-4v-18.4c17.5-8.3,30-25.5,31.8-45.7C178.6,121,183,116,183,110V97C183,96.4,183,95.9,182.9,95.3
										z"/>
								</g>
								<g id="Skin_x2F__xD83D__xDC76__xD83C__xDFFD_-03-Brown_00000123399281234240746660000003735208321159084941_">
									<g id="Color_00000054983583684405562860000016595782085661183904_" transform="translate(0.000000, 0.000000) ">
										<rect class="st13" width="264" height="280"/>
									</g>
								</g>
							</g>
							<g id="Shadow" transform="translate(16.000000, 13.000000)">
								<g id="Shape">
								</g>
								<path id="Shadow-Mask" class="st9" d="M30.1,115.1c-2.4,3-5.6,7.5-5.7,7.1c1.9-2.4,3-5.2,3-8.8c0.2-18.1-11.9-25.6,0-60
									c0.7-1.9,1.8-3.7,3.2-5.4c-10.3,34.5,0.8,42.4,0.6,61C31.2,111.3,30.8,113.3,30.1,115.1z M202.4,48c1.5,1.7,2.6,3.5,3.2,5.4
									c10.2,29.4,2.9,39.1,0.6,52.6c-0.3,0.8-0.1,1.8-0.4,2.6c-30.7-10.5-58.3-30-74.4-53c-22.7,29.4-73,29.8-97.7,55.3
									c0.4-0.5,0.8-1.1,1.1-1.5c22.5-29.9,73.5-29.1,96.1-61.1c15.4,24.1,41.8,44.6,71.2,55.6c0.3-0.9,0.1-1.8,0.4-2.7
									C204.5,87.4,211.2,77.3,202.4,48z"/>
							</g>
							<path id="Light" class="st14" d="M50.8,122.4c22.5-29.9,73.5-29.1,96.1-61.1c15.4,24.1,41.8,44.6,71.2,55.6
								c0.3-0.9,0.1-1.8,0.4-2.7c2.2-14.1,9.1-24.4-0.6-55.2c-11.6-36.5-41.7-45.2-84.8-46c-0.7,0-0.8,0-1,0
								C89,13.8,58.9,22.5,47.3,59c-11.4,36.2,0.2,44,0,63c0,3.8-1.1,6.7-2.9,9.2C44.5,131.6,48.5,125.4,50.8,122.4z"/>
						</g>
					</g>
				</g>
			</g>
		</g>
	</g>
</g>
</svg>
