<?xml version="1.0" encoding="utf-8"?>
<!-- Generator: Adobe Illustrator 26.2.1, SVG Export Plug-In . SVG Version: 6.00 Build 0)  -->
<svg version="1.1" id="Layer_1" xmlns="http://www.w3.org/2000/svg" xmlns:xlink="http://www.w3.org/1999/xlink" x="0px" y="0px"
	 viewBox="0 0 360 432" style="enable-background:new 0 0 360 432;" xml:space="preserve">
<style type="text/css">
	.st0{fill:#FF4713;}
	.st1{fill:#993921;}
	.st2{fill:#EFD9A0;}
</style>
<g>
	<path class="st0" d="M164.4,166.5c0,29.4,0,147.5,0,187.2c0,39.8-110.5,70.6-121.5,20.7c-10.9,0-16.9,0-16.9,0v40.2h310.5v-40.2
		c0,0-6,0-16.9,0c-11,49.8-121.5,19-121.5-20.7c0-39.8,0-157.8,0-187.2s119.8-62.3,138.7-23.7c-0.8-61.7-51.9-57.4-94.5-57.7
		c-32.3-0.2-54,0-61.1,0.1c-7.1-0.1-28.8-0.3-61.1-0.1c-42.6,0.3-93.6-4.1-94.5,57.7C44.5,104.3,164.4,137.1,164.4,166.5z"/>
	<path class="st1" d="M58.6,340.7c3,4.6,8.3,24,14.4,29.2c7,5.9,16.6,7.8,27,7.5c9.9-0.3,18.9-7.5,25.1-14.4
		c7.4-8.3,11.1-25.6,10.6-31.8c-0.7-7.5-15-12.2-25.6-13.8c-8.5-1.3-16.8-0.7-24.7,0.2c-7.6,0.9-10,4.3-12,8.4
		c13.3-2.1,44-2.8,48.8,5c5.7,9.2-50,10-64.6-0.9c-6.5-4.8-18.6-3.6-21.9,6c-4.4,13.2,19.5,25,31.5,29.7c0,0-4.5-8.9-8-12.1
		c-4.9-4.4-16.6-6.6-17-12.8C41.7,333.8,52.8,331.8,58.6,340.7z"/>
	<path class="st0" d="M25.6,159.1c0,37.5,12.2,59.4,44.6,75.3c25.6,12.6,56.3,20.2,89.7,49c0-3.1,0-10.2,0-13
		c0-24.8-41-32-63.2-39.6c-13.6-4.7-39.1-17.9-50.8-29.8C38.5,193.4,25.6,175.7,25.6,159.1z"/>
	<path class="st1" d="M142.1,74.8c-12.6-37.1-32.5-49.4-54.7-50.6C53.5,22.5,41.7,65,40.1,86.9C57.6,74,105.1,70.7,142.1,74.8z"/>
	<path class="st1" d="M141.7,199.6c-9.9-11-18.1-12.4-31.7-14.5c-10.5-1.7-29.7-8.1-35.4-29c-4.1,29.4,10,41,24.1,43.6
		C110.4,201.9,121,191.3,141.7,199.6z"/>
	<path id="left-steam_00000175302816046725232500000005932427718990684591_" class="st2" d="M90.2,224c-8.4,14.2-7.4,24-5.7,40.2
		c1.3,12.5,0.2,36.3-19.2,48.1c30.9-2.6,38.6-21.8,37.3-38.7C101.5,259.6,87.7,250,90.2,224z"/>
	<path class="st1" d="M302.5,340.7c-3,4.6-8.3,24-14.4,29.2c-7,5.9-16.6,7.8-27,7.5c-9.9-0.3-18.9-7.5-25.1-14.4
		c-7.4-8.3-11.1-25.6-10.6-31.8c0.7-7.5,15-12.2,25.6-13.8c8.5-1.3,16.8-0.7,24.7,0.2c7.6,0.9,10,4.3,12,8.4
		c-13.3-2.1-44-2.8-48.8,5c-5.7,9.2,50,10,64.6-0.9c6.5-4.8,18.6-3.6,21.9,6c4.4,13.2-19.5,25-31.5,29.7c0,0,4.5-8.9,8-12.1
		c4.9-4.4,16.6-6.6,17-12.8C319.4,333.8,308.4,331.8,302.5,340.7z"/>
	<path class="st0" d="M316.5,200.9c-11.7,11.9-37.2,25.1-50.8,29.8c-22.1,7.6-63.2,14.7-63.2,39.6c0,2.8,0,9.9,0,13
		c33.3-28.8,64-36.4,89.7-49c32.4-16,44.6-37.8,44.6-75.3C336.8,175.7,324,193.4,316.5,200.9z"/>
	<path class="st1" d="M322.3,86.9C320.8,65,308.9,22.5,275,24.3c-22.2,1.2-42.1,13.5-54.7,50.6C257.3,70.7,304.8,74,322.3,86.9z"/>
	<path class="st1" d="M263.8,199.7c14-2.6,28.2-14.2,24.1-43.6c-5.7,20.8-24.9,27.3-35.4,29c-13.6,2.2-21.8,3.5-31.7,14.5
		C241.5,191.3,252,201.9,263.8,199.7z"/>
	<path id="right-steam_00000007428305391247611730000014370342910858083255_" class="st2" d="M270.9,224c8.4,14.2,7.4,24,5.7,40.2
		c-1.3,12.5-0.2,36.3,19.2,48.1c-30.9-2.6-38.6-21.8-37.3-38.7C259.7,259.6,273.4,250,270.9,224z"/>
</g>
</svg>
