<svg width="360" height="432" viewBox="0 0 360 432" fill="none" xmlns="http://www.w3.org/2000/svg">
<rect width="360" height="432" fill="white"/>
<g id="inari-original 1">
<g id="Group">
<path id="Vector" d="M164.4 166.5C164.4 195.9 164.4 314 164.4 353.7C164.4 393.5 53.9 424.3 42.9 374.4C32 374.4 26 374.4 26 374.4V414.6H336.5V374.4C336.5 374.4 330.5 374.4 319.6 374.4C308.6 424.2 198.1 393.4 198.1 353.7C198.1 313.9 198.1 195.9 198.1 166.5C198.1 137.1 317.9 104.2 336.8 142.8C336 81.1 284.9 85.4 242.3 85.1C210 84.9 188.3 85.1 181.2 85.2C174.1 85.1 152.4 84.9 120.1 85.1C77.5 85.4 26.5 81 25.6 142.8C44.5 104.3 164.4 137.1 164.4 166.5Z" fill="#FF4713"/>
<path id="Vector_2" d="M58.6 340.7C61.6 345.3 66.9 364.7 73 369.9C80 375.8 89.6 377.7 100 377.4C109.9 377.1 118.9 369.9 125.1 363C132.5 354.7 136.2 337.4 135.7 331.2C135 323.7 120.7 319 110.1 317.4C101.6 316.1 93.3 316.7 85.4 317.6C77.8 318.5 75.4 321.9 73.4 326C86.7 323.9 117.4 323.2 122.2 331C127.9 340.2 72.2 341 57.6 330.1C51.1 325.3 39 326.5 35.7 336.1C31.3 349.3 55.2 361.1 67.2 365.8C67.2 365.8 62.7 356.9 59.2 353.7C54.3 349.3 42.6 347.1 42.2 340.9C41.7 333.8 52.8 331.8 58.6 340.7Z" fill="#993921"/>
<path id="Vector_3" d="M25.6 159.1C25.6 196.6 37.8 218.5 70.2 234.4C95.8 247 126.5 254.6 159.9 283.4C159.9 280.3 159.9 273.2 159.9 270.4C159.9 245.6 118.9 238.4 96.7 230.8C83.1 226.1 57.6 212.9 45.9 201C38.5 193.4 25.6 175.7 25.6 159.1Z" fill="#FF4713"/>
<path id="Vector_4" d="M142.1 74.8C129.5 37.7 109.6 25.4 87.4 24.2C53.5 22.5 41.7 65 40.1 86.9C57.6 74 105.1 70.7 142.1 74.8Z" fill="#993921"/>
<path id="Vector_5" d="M141.7 199.6C131.8 188.6 123.6 187.2 110 185.1C99.5 183.4 80.3 177 74.6 156.1C70.5 185.5 84.6 197.1 98.7 199.7C110.4 201.9 121 191.3 141.7 199.6Z" fill="#993921"/>
<path id="left-steam" d="M109.9 224C101.5 238.2 102.5 248 104.2 264.2C105.5 276.7 104.4 300.5 85 312.3C115.9 309.7 123.6 290.5 122.3 273.6C121.2 259.6 107.4 250 109.9 224Z" fill="#EFD9A0"/>
<path id="Vector_6" d="M302.5 340.7C299.5 345.3 294.2 364.7 288.1 369.9C281.1 375.8 271.5 377.7 261.1 377.4C251.2 377.1 242.2 369.9 236 363C228.6 354.7 224.9 337.4 225.4 331.2C226.1 323.7 240.4 319 251 317.4C259.5 316.1 267.8 316.7 275.7 317.6C283.3 318.5 285.7 321.9 287.7 326C274.4 323.9 243.7 323.2 238.9 331C233.2 340.2 288.9 341 303.5 330.1C310 325.3 322.1 326.5 325.4 336.1C329.8 349.3 305.9 361.1 293.9 365.8C293.9 365.8 298.4 356.9 301.9 353.7C306.8 349.3 318.5 347.1 318.9 340.9C319.4 333.8 308.4 331.8 302.5 340.7Z" fill="#993921"/>
<path id="Vector_7" d="M316.5 200.9C304.8 212.8 279.3 226 265.7 230.7C243.6 238.3 202.5 245.4 202.5 270.3C202.5 273.1 202.5 280.2 202.5 283.3C235.8 254.5 266.5 246.9 292.2 234.3C324.6 218.3 336.8 196.5 336.8 159C336.8 175.7 324 193.4 316.5 200.9Z" fill="#FF4713"/>
<path id="Vector_8" d="M322.3 86.9C320.8 65 308.9 22.5 275 24.3C252.8 25.5 232.9 37.8 220.3 74.9C257.3 70.7 304.8 74 322.3 86.9Z" fill="#993921"/>
<path id="Vector_9" d="M263.8 199.7C277.8 197.1 292 185.5 287.9 156.1C282.2 176.9 263 183.4 252.5 185.1C238.9 187.3 230.7 188.6 220.8 199.6C241.5 191.3 252 201.9 263.8 199.7Z" fill="#993921"/>
<path id="right-steam" d="M251.536 224C259.936 238.2 258.936 248 257.236 264.2C255.936 276.7 257.036 300.5 276.436 312.3C245.536 309.7 237.836 290.5 239.136 273.6C240.336 259.6 254.036 250 251.536 224Z" fill="#EFD9A0"/>
</g>
</g>
</svg>
